<?xml version="1.0" encoding="UTF-8"?> <svg width="512" height="512" viewBox="0 0 512 512" fill="none" xmlns="http://www.w3.org/2000/svg">
<path fill-rule="evenodd" clip-rule="evenodd" d="M24 128C24 70.5624 70.5624 24 128 24H384C441.438 24 488 70.5624 488 128V384C488 441.438 441.438 488 384 488H128C70.5624 488 24 441.438 24 384V128ZM128 40C79.3989 40 40 79.3989 40 128V384C40 432.601 79.3989 472 128 472H384C432.601 472 472 432.601 472 384V128C472 79.3989 432.601 40 384 40H128ZM256 352C242.745 352 232 362.745 232 376C232 389.255 242.745 400 256 400C269.255 400 280 389.255 280 376C280 362.745 269.255 352 256 352ZM216 376C216 353.909 233.909 336 256 336C278.091 336 296 353.909 296 376C296 398.091 278.091 416 256 416C233.909 416 216 398.091 216 376ZM256 96C238.327 96 224 110.327 224 128V288C224 305.673 238.327 320 256 320C273.673 320 288 305.673 288 288V128C288 110.327 273.673 96 256 96ZM240 128C240 119.163 247.163 112 256 112C264.837 112 272 119.163 272 128V288C272 296.837 264.837 304 256 304C247.163 304 240 296.837 240 288V128Z" fill="black"/>
</svg>
