<svg xmlns:dc="http://purl.org/dc/elements/1.1/" xmlns:cc="http://creativecommons.org/ns#" xmlns:rdf="http://www.w3.org/1999/02/22-rdf-syntax-ns#" xmlns:svg="http://www.w3.org/2000/svg" xmlns="http://www.w3.org/2000/svg" xmlns:sodipodi="http://sodipodi.sourceforge.net/DTD/sodipodi-0.dtd" xmlns:inkscape="http://www.inkscape.org/namespaces/inkscape" sodipodi:docname="tree_15042015_6.svg" id="svg2" version="1.1" inkscape:version="0.91 r13725" viewBox="20 100 710 720">
 <circle cx="380" cy="460" r="350" stroke="black" stroke-width="3" fill="#FFFFFF" />
  <sodipodi:namedview id="base" pagecolor="#ffffff" bordercolor="#666666" borderopacity="1.0" inkscape:pageopacity="0.0" inkscape:pageshadow="2" inkscape:zoom="0.72883651" inkscape:cx="372.04724" inkscape:cy="526.1811" inkscape:document-units="px" inkscape:current-layer="layer1" showgrid="false" inkscape:window-width="1280" inkscape:window-height="968" inkscape:window-x="-4" inkscape:window-y="-4" inkscape:window-maximized="1" showguides="false"/>
  <defs id="defs4">
    <inkscape:path-effect effect="powerstroke" id="path-effect6525" is_visible="true" offset_points="0,6.3568824" sort_points="true" interpolator_type="Linear" interpolator_beta="0.2" start_linecap_type="zerowidth" linejoin_type="round" miter_limit="4" end_linecap_type="zerowidth" cusp_linecap_type="round"/>
    <inkscape:path-effect effect="powerstroke" id="path-effect6521" is_visible="true" offset_points="0.010972662,7.2552626" sort_points="true" interpolator_type="Linear" interpolator_beta="0.2" start_linecap_type="zerowidth" linejoin_type="round" miter_limit="4" end_linecap_type="zerowidth" cusp_linecap_type="round"/>
    <inkscape:path-effect effect="powerstroke" id="path-effect6516" is_visible="true" offset_points="0,6.5679895" sort_points="true" interpolator_type="Linear" interpolator_beta="0.2" start_linecap_type="zerowidth" linejoin_type="round" miter_limit="4" end_linecap_type="zerowidth" cusp_linecap_type="round"/>
    <inkscape:path-effect effect="powerstroke" id="path-effect6512" is_visible="true" offset_points="0,-7.5642102" sort_points="true" interpolator_type="Linear" interpolator_beta="0.2" start_linecap_type="zerowidth" linejoin_type="round" miter_limit="4" end_linecap_type="zerowidth" cusp_linecap_type="round"/>
    <inkscape:path-effect cusp_linecap_type="round" end_linecap_type="zerowidth" miter_limit="4" linejoin_type="round" start_linecap_type="zerowidth" interpolator_beta="0.2" interpolator_type="Linear" sort_points="true" offset_points="0,5.4706216" is_visible="true" id="path-effect5985" effect="powerstroke"/>
    <inkscape:path-effect effect="powerstroke" id="path-effect3478" is_visible="true" offset_points="0,5.9074047" sort_points="true" interpolator_type="Linear" interpolator_beta="0.2" start_linecap_type="zerowidth" linejoin_type="round" miter_limit="4" end_linecap_type="zerowidth" cusp_linecap_type="round"/>
    <inkscape:path-effect effect="powerstroke" id="path-effect3474" is_visible="true" offset_points="0,-6.7775141" sort_points="true" interpolator_type="Linear" interpolator_beta="0.2" start_linecap_type="zerowidth" linejoin_type="round" miter_limit="4" end_linecap_type="zerowidth" cusp_linecap_type="round"/>
    <inkscape:path-effect effect="powerstroke" id="path-effect3470" is_visible="true" offset_points="0,5.4706216" sort_points="true" interpolator_type="Linear" interpolator_beta="0.2" start_linecap_type="zerowidth" linejoin_type="round" miter_limit="4" end_linecap_type="zerowidth" cusp_linecap_type="round"/>
    <inkscape:path-effect effect="powerstroke" id="path-effect3466" is_visible="true" offset_points="0,-7.3786346" sort_points="true" interpolator_type="Linear" interpolator_beta="0.2" start_linecap_type="zerowidth" linejoin_type="round" miter_limit="4" end_linecap_type="zerowidth" cusp_linecap_type="round"/>
    <inkscape:path-effect effect="powerstroke" id="path-effect3462" is_visible="true" offset_points="0.02115919,-6.366871" sort_points="true" interpolator_type="Linear" interpolator_beta="0.2" start_linecap_type="zerowidth" linejoin_type="round" miter_limit="4" end_linecap_type="zerowidth" cusp_linecap_type="round"/>
    <inkscape:path-effect effect="powerstroke" id="path-effect3458" is_visible="true" offset_points="0.0047969949,-3.6781594" sort_points="true" interpolator_type="Linear" interpolator_beta="0.2" start_linecap_type="zerowidth" linejoin_type="round" miter_limit="4" end_linecap_type="zerowidth" cusp_linecap_type="round"/>
    <inkscape:path-effect effect="powerstroke" id="path-effect3454" is_visible="true" offset_points="0,4.5834098" sort_points="true" interpolator_type="Linear" interpolator_beta="0.2" start_linecap_type="zerowidth" linejoin_type="round" miter_limit="4" end_linecap_type="zerowidth" cusp_linecap_type="round"/>
    <inkscape:path-effect effect="powerstroke" id="path-effect3450" is_visible="true" offset_points="0.012153128,5.7437065" sort_points="true" interpolator_type="Linear" interpolator_beta="0.2" start_linecap_type="zerowidth" linejoin_type="round" miter_limit="4" end_linecap_type="zerowidth" cusp_linecap_type="round"/>
    <inkscape:path-effect effect="powerstroke" id="path-effect3446" is_visible="true" offset_points="0,-4.3752731" sort_points="true" interpolator_type="Linear" interpolator_beta="0.2" start_linecap_type="zerowidth" linejoin_type="round" miter_limit="4" end_linecap_type="zerowidth" cusp_linecap_type="round"/>
    <inkscape:path-effect effect="powerstroke" id="path-effect3442" is_visible="true" offset_points="0,7.794948" sort_points="true" interpolator_type="Linear" interpolator_beta="0.2" start_linecap_type="zerowidth" linejoin_type="round" miter_limit="4" end_linecap_type="zerowidth" cusp_linecap_type="round"/>
    <inkscape:path-effect effect="powerstroke" id="path-effect3438" is_visible="true" offset_points="0,7.0660087" sort_points="true" interpolator_type="Linear" interpolator_beta="0.2" start_linecap_type="zerowidth" linejoin_type="round" miter_limit="4" end_linecap_type="zerowidth" cusp_linecap_type="round"/>
    <inkscape:path-effect effect="powerstroke" id="path-effect3434" is_visible="true" offset_points="0,14.853881" sort_points="true" interpolator_type="Linear" interpolator_beta="0.2" start_linecap_type="zerowidth" linejoin_type="round" miter_limit="4" end_linecap_type="zerowidth" cusp_linecap_type="round"/>
    <inkscape:path-effect effect="powerstroke" id="path-effect3430" is_visible="true" offset_points="0,-10.508652" sort_points="true" interpolator_type="Linear" interpolator_beta="0.2" start_linecap_type="zerowidth" linejoin_type="round" miter_limit="4" end_linecap_type="zerowidth" cusp_linecap_type="round"/>
    <inkscape:path-effect effect="powerstroke" id="path-effect3426" is_visible="true" offset_points="0,-9.1222595" sort_points="true" interpolator_type="Linear" interpolator_beta="0.2" start_linecap_type="zerowidth" linejoin_type="round" miter_limit="4" end_linecap_type="zerowidth" cusp_linecap_type="round"/>
    <inkscape:path-effect effect="powerstroke" id="path-effect3422" is_visible="true" offset_points="0,11.359128" sort_points="true" interpolator_type="Linear" interpolator_beta="0.2" start_linecap_type="zerowidth" linejoin_type="round" miter_limit="4" end_linecap_type="zerowidth" cusp_linecap_type="round"/>
    <inkscape:path-effect effect="powerstroke" id="path-effect3418" is_visible="true" offset_points="0.010953818,20.783203" sort_points="true" interpolator_type="Linear" interpolator_beta="0.2" start_linecap_type="zerowidth" linejoin_type="round" miter_limit="4" end_linecap_type="zerowidth" cusp_linecap_type="round"/>
    <inkscape:path-effect effect="powerstroke" id="path-effect3414" is_visible="true" offset_points="0,-23.165981" sort_points="true" interpolator_type="Linear" interpolator_beta="0.2" start_linecap_type="zerowidth" linejoin_type="round" miter_limit="4" end_linecap_type="zerowidth" cusp_linecap_type="round"/>
    <inkscape:path-effect effect="powerstroke" id="path-effect3410" is_visible="true" offset_points="0.046550675,41.512007" sort_points="true" interpolator_type="Linear" interpolator_beta="0.2" start_linecap_type="zerowidth" linejoin_type="round" miter_limit="4" end_linecap_type="zerowidth" cusp_linecap_type="round"/>
    <inkscape:path-effect cusp_linecap_type="round" end_linecap_type="zerowidth" miter_limit="4" linejoin_type="round" start_linecap_type="zerowidth" interpolator_beta="0.2" interpolator_type="Linear" sort_points="true" offset_points="0,5.9074047" is_visible="true" id="path-effect3406" effect="powerstroke"/>
    <inkscape:path-effect cusp_linecap_type="round" end_linecap_type="zerowidth" miter_limit="4" linejoin_type="round" start_linecap_type="zerowidth" interpolator_beta="0.2" interpolator_type="Linear" sort_points="true" offset_points="0,-6.7775141" is_visible="true" id="path-effect3402" effect="powerstroke"/>
    <inkscape:path-effect cusp_linecap_type="round" end_linecap_type="zerowidth" miter_limit="4" linejoin_type="round" start_linecap_type="zerowidth" interpolator_beta="0.2" interpolator_type="Linear" sort_points="true" offset_points="0,5.4706216" is_visible="true" id="path-effect3398" effect="powerstroke"/>
    <inkscape:path-effect cusp_linecap_type="round" end_linecap_type="zerowidth" miter_limit="4" linejoin_type="round" start_linecap_type="zerowidth" interpolator_beta="0.2" interpolator_type="Linear" sort_points="true" offset_points="0,-7.3786346" is_visible="true" id="path-effect3394" effect="powerstroke"/>
    <inkscape:path-effect cusp_linecap_type="round" end_linecap_type="zerowidth" miter_limit="4" linejoin_type="round" start_linecap_type="zerowidth" interpolator_beta="0.2" interpolator_type="Linear" sort_points="true" offset_points="0.02115919,-6.366871" is_visible="true" id="path-effect3390" effect="powerstroke"/>
    <inkscape:path-effect cusp_linecap_type="round" end_linecap_type="zerowidth" miter_limit="4" linejoin_type="round" start_linecap_type="zerowidth" interpolator_beta="0.2" interpolator_type="Linear" sort_points="true" offset_points="0.0047969949,-3.6781594" is_visible="true" id="path-effect3386" effect="powerstroke"/>
    <inkscape:path-effect cusp_linecap_type="round" end_linecap_type="zerowidth" miter_limit="4" linejoin_type="round" start_linecap_type="zerowidth" interpolator_beta="0.2" interpolator_type="Linear" sort_points="true" offset_points="0,4.5834098" is_visible="true" id="path-effect3382" effect="powerstroke"/>
    <inkscape:path-effect cusp_linecap_type="round" end_linecap_type="zerowidth" miter_limit="4" linejoin_type="round" start_linecap_type="zerowidth" interpolator_beta="0.2" interpolator_type="Linear" sort_points="true" offset_points="0.012153128,5.7437065" is_visible="true" id="path-effect3378" effect="powerstroke"/>
    <inkscape:path-effect cusp_linecap_type="round" end_linecap_type="zerowidth" miter_limit="4" linejoin_type="round" start_linecap_type="zerowidth" interpolator_beta="0.2" interpolator_type="Linear" sort_points="true" offset_points="0,-4.3752731" is_visible="true" id="path-effect3374" effect="powerstroke"/>
    <inkscape:path-effect cusp_linecap_type="round" end_linecap_type="zerowidth" miter_limit="4" linejoin_type="round" start_linecap_type="zerowidth" interpolator_beta="0.2" interpolator_type="Linear" sort_points="true" offset_points="0,7.794948" is_visible="true" id="path-effect3370" effect="powerstroke"/>
    <inkscape:path-effect cusp_linecap_type="round" end_linecap_type="zerowidth" miter_limit="4" linejoin_type="round" start_linecap_type="zerowidth" interpolator_beta="0.2" interpolator_type="Linear" sort_points="true" offset_points="0,7.0660087" is_visible="true" id="path-effect3366" effect="powerstroke"/>
    <inkscape:path-effect cusp_linecap_type="round" end_linecap_type="zerowidth" miter_limit="4" linejoin_type="round" start_linecap_type="zerowidth" interpolator_beta="0.2" interpolator_type="Linear" sort_points="true" offset_points="0,14.853881" is_visible="true" id="path-effect3362" effect="powerstroke"/>
    <inkscape:path-effect cusp_linecap_type="round" end_linecap_type="zerowidth" miter_limit="4" linejoin_type="round" start_linecap_type="zerowidth" interpolator_beta="0.2" interpolator_type="Linear" sort_points="true" offset_points="0,-10.508652" is_visible="true" id="path-effect3358" effect="powerstroke"/>
    <inkscape:path-effect cusp_linecap_type="round" end_linecap_type="zerowidth" miter_limit="4" linejoin_type="round" start_linecap_type="zerowidth" interpolator_beta="0.2" interpolator_type="Linear" sort_points="true" offset_points="0,-9.1222595" is_visible="true" id="path-effect3354" effect="powerstroke"/>
    <inkscape:path-effect cusp_linecap_type="round" end_linecap_type="zerowidth" miter_limit="4" linejoin_type="round" start_linecap_type="zerowidth" interpolator_beta="0.2" interpolator_type="Linear" sort_points="true" offset_points="0,11.359128" is_visible="true" id="path-effect3350" effect="powerstroke"/>
    <inkscape:path-effect cusp_linecap_type="round" end_linecap_type="zerowidth" miter_limit="4" linejoin_type="round" start_linecap_type="zerowidth" interpolator_beta="0.2" interpolator_type="Linear" sort_points="true" offset_points="0.010953818,20.783203" is_visible="true" id="path-effect3346" effect="powerstroke"/>
    <inkscape:path-effect cusp_linecap_type="round" end_linecap_type="zerowidth" miter_limit="4" linejoin_type="round" start_linecap_type="zerowidth" interpolator_beta="0.2" interpolator_type="Linear" sort_points="true" offset_points="0,-23.165981" is_visible="true" id="path-effect3342" effect="powerstroke"/>
    <inkscape:path-effect cusp_linecap_type="round" end_linecap_type="zerowidth" miter_limit="4" linejoin_type="round" start_linecap_type="zerowidth" interpolator_beta="0.2" interpolator_type="Linear" sort_points="true" offset_points="0.046550675,41.512007" is_visible="true" id="path-effect3338" effect="powerstroke"/>
  </defs>
  <metadata id="metadata7">
    <rdf:RDF>
      <cc:Work rdf:about="">
        <dc:format>image/svg+xml</dc:format>
        <dc:type rdf:resource="http://purl.org/dc/dcmitype/StillImage"/>
        <dc:title/>
      </cc:Work>
    </rdf:RDF>
  </metadata>
  <g id="layer1" inkscape:groupmode="layer" inkscape:label="Camada 1">
    <g id="g11491" transform="translate(22.994884,0.05601236)">
      <path id="path3336" d="m 393.77734,163.27344 c 13.58483,36.20106 15.38315,65.92276 10.56836,91.46875 -1.67618,8.89334 -4.18364,17.35708 -7.31445,25.51953 -11.37495,-9.48249 -20.891,-19.75912 -28.01563,-31.30664 -8.27305,-13.4089 -13.46426,-28.75038 -14.42187,-46.80469 -0.9574,18.05035 2.32552,34.36546 9.35742,49.51367 6.58103,14.17694 16.34713,27.11219 28.57813,39.26172 -5.17305,11.18756 -11.45409,21.85944 -18.33594,32.33008 -0.13432,0.20437 -0.26095,0.39109 -0.39453,0.59375 -13.07477,-3.31455 -24.13574,-8.66067 -33.53906,-15.66797 -10.1959,-7.59793 -18.54564,-17.22195 -25.34375,-28.43555 -13.6767,-22.55992 -20.59595,-50.74539 -24.04102,-79.42773 0.38794,28.52814 4.25508,58.32662 15.97852,83.69726 3.23298,6.99649 7.09421,13.71252 11.68554,20.00782 -17.09294,1.24943 -31.69474,-3.3314 -45.34961,-11.42969 -16.2432,-9.63334 -30.69524,-23.92847 -45.96679,-38.32422 14.23779,15.10398 28.07231,30.55968 43.97851,41.43945 14.72614,10.07261 31.58758,16.47346 52.57227,14.92969 2.3866,2.77648 4.93918,5.44976 7.67187,8.00586 8.79443,8.22614 19.37028,15.16365 31.98047,20.35547 -11.48961,16.19982 -21.33837,28.35576 -35.67187,49.82812 -9.1986,13.78 -18.09346,28.66944 -25.53125,45.11133 -14.47716,-7.4683 -27.45319,-16.62598 -38.76954,-27.33007 6.59724,-12.01473 8.14785,-24.48937 7.33399,-36.4336 -0.93503,-13.72245 -5.04465,-27.63948 -9.11523,-40.69336 1.67444,13.89695 3.12053,27.66531 1.55273,40.52344 -1.21316,9.94957 -4.17379,18.72477 -9.65039,26.38086 -3.57268,-4.04639 -6.94985,-8.26493 -10.09766,-12.67383 -17.44595,-24.43525 -28.32795,-54.47497 -30.80859,-88.72266 -2.4717,34.12418 3.42337,66.94554 18.05273,96.32618 13.34078,26.79272 33.87278,50.5249 61.37696,69.22461 -1.01596,3.28459 -1.97804,6.61611 -2.85157,10.02148 -5.63179,23.06944 -6.09027,46.40701 -3.48242,69.51367 -16.31263,-6.00837 -31.58562,-14.59004 -45.77148,-25.43164 -11.52987,-8.81174 -22.25582,-19.0593 -32.14063,-30.46094 3.80949,-4.24136 6.61892,-8.81733 8.61719,-13.57031 2.70987,-6.44558 3.93,-13.15948 4.30664,-19.77734 0.7595,-13.34487 -1.88959,-27.4625 -3.98047,-39.88282 -0.31492,13.02996 -0.21021,26.59459 -3.27539,38.8086 -1.47968,5.89617 -3.63626,11.18476 -6.7207,15.76953 -2.05678,3.05723 -4.53699,5.79392 -7.50977,8.2168 -5.00061,-6.43459 -9.7627,-13.16845 -14.26562,-20.17969 -12.82776,-19.97335 -23.4476,-41.88018 -31.77149,-64.55664 12.60927,-11.22211 23.50237,-25.1678 31.06055,-39.79883 7.78001,-15.06045 11.99749,-30.77876 11.00781,-44.96094 -0.97906,14.02996 -7.06996,28.66337 -16.08593,41.95117 -8.07266,11.89752 -18.5495,22.78835 -29.97657,31.31836 -9.78447,-29.6782 -15.69699,-60.31879 -17.54101,-89.39062 -2.84146,44.7968 3.98469,95.90502 21.31054,143.48828 -7.00706,0.27426 -13.07783,-0.33389 -18.42382,-1.6875 -7.38944,-1.87101 -13.68896,-5.2085 -19.4004,-9.85352 -11.66405,-9.48624 -20.175236,-23.77733 -30.136714,-40.01953 7.69418,16.78708 14.600338,33.08661 25.470704,44.93555 5.5536,6.05355 12.27485,11.11743 20.84766,14.57422 7.53198,3.0371 16.30111,4.75263 26.6289,4.90234 2.68907,6.5505 5.57315,13.01813 8.67774,19.36914 9.93477,20.32342 22.1197,39.69728 36.70312,57.08008 -11.53755,5.6649 -22.65658,9.07088 -33.54883,10.68946 -13.14268,1.95297 -26.08704,1.33219 -39.15234,-1.13868 -26.35525,-4.98421 -52.178364,-17.26138 -79.927735,-29.67187 26.137271,14.50855 51.524585,29.54121 78.105465,37.25195 13.4111,3.89037 27.36404,5.99941 42.12696,5.19141 13.69249,-0.74942 27.95769,-4.00898 42.96289,-10.54688 1.79135,1.8701 3.60201,3.72286 5.45703,5.53321 20.73447,20.23509 45.63931,36.78677 74.91211,47.14062 0.69522,2.73683 1.4097,5.46803 2.15039,8.1875 10.09713,37.07185 27.3463,82.01313 37.32031,115.40625 5.45437,18.2613 9.62604,35.40728 11.79688,51.66016 2.16713,16.22507 2.23764,30.8454 -0.0332,44.20703 -1.8288,10.76066 -5.19521,20.83036 -10.34375,30.44726 -4.55752,8.51294 -50.93781,58.65177 -68.56445,76.90625 l 122.95898,0 c 8.3793,-14.24045 11.19517,-29.63644 17.25782,-44.38281 7.59892,-18.48309 11.51716,-37.02729 12.67773,-55.34375 1.41755,-22.37188 -1.29473,-44.09161 -6.0957,-64.69336 -4.79005,-20.55492 -11.8218,-40.66428 -19.48828,-59.88281 -9.19315,-23.04562 -18.1268,-42.5112 -26.69141,-61.75 24.59111,-5.80644 47.85835,-15.66062 69.09766,-28.4375 19.24378,-11.57644 36.97338,-25.63614 52.74609,-41.45117 27.68929,12.51774 56.09857,14.68252 83.13867,10.40039 28.77576,-4.557 56.43311,-16.46772 80.83789,-31.54297 -25.69195,13.09701 -53.64851,22.42392 -81.66211,24.51562 -24.91526,1.86036 -49.49788,-2.02548 -72.51757,-13.69531 4.67244,-5.18068 9.15108,-10.51179 13.40234,-15.98828 13.90091,-17.90721 25.50589,-37.34195 34.33984,-57.62695 15.04418,-3.82052 27.53709,-13.66762 37.42578,-24.33594 10.87666,-11.73419 19.32434,-25.23018 25.04102,-35.07813 -7.31472,8.95106 -17.03889,21.04928 -28.83594,31.13672 -8.97511,7.67446 -18.68096,13.76154 -28.89258,16.61133 2.34258,-6.21788 4.43544,-12.49803 6.23829,-18.83008 8.91866,-31.32464 11.00209,-63.58943 4.90625,-94.67968 2.25664,31.51208 -3.84787,62.42674 -15.82422,90.84961 -8.66682,20.5685 -20.47037,39.94043 -34.57813,57.45117 -5.31413,-9.60922 -9.12123,-19.58399 -11.63281,-30.1211 -3.22189,-13.5171 -4.29254,-27.82463 -3.77539,-43.20703 -2.95079,15.01421 -4.41905,29.69116 -3.52735,44.27539 0.82162,13.43758 3.66012,26.86887 9.22071,40.42969 -2.44048,2.69098 -4.93163,5.3338 -7.48047,7.91602 -21.85842,22.14462 -47.47202,40.08331 -74.74219,52.25195 -0.36241,0.16171 -0.727,0.31305 -1.08984,0.47266 -2.82514,-8.62799 -4.05119,-18.82033 -3.07031,-28.56446 1.21742,-12.09407 5.85247,-23.75218 15.47656,-30.57812 -10.94303,5.14158 -18.14938,16.23558 -21.72266,29.39843 -2.95314,10.87849 -3.38981,23.10212 -1.49023,34.16016 -19.27491,7.28243 -39.01777,11.59513 -58.58985,12.61133 -0.912,-2.36001 -1.81764,-4.74688 -2.71679,-7.16797 -9.82698,-26.46051 -16.45049,-51.46742 -17.24805,-75.35742 18.4744,2.08339 35.48788,0.69427 50.99609,-3.26367 18.8856,-4.8199 35.40425,-13.39933 49.65235,-23.94532 28.37534,-21.00253 48.41594,-50.30196 60.79492,-75.47461 -15.58294,23.71963 -37.89719,49.70301 -66.62305,66.72852 -9.24195,5.47762 -19.06674,9.97084 -29.45898,13.18359 -1.98909,-11.22342 -1.67253,-20.37843 0.8164,-28.66015 2.8406,-9.45196 8.5485,-18.00667 16.94922,-27.13672 -9.71772,7.36682 -17.65332,14.88467 -22.96875,24.58789 -5.076,9.26614 -7.6369,20.27693 -7.14258,34.3457 -1.72843,0.34594 -3.46735,0.66446 -5.2246,0.9375 -14.5603,2.26241 -30.19862,1.98461 -46.97657,-1.59961 0.10919,-0.91985 0.22752,-1.83917 0.35743,-2.75586 3.47012,-26.41301 12.6104,-50.17997 24.40234,-74.06054 0.33446,-0.67733 0.72521,-1.42289 1.07226,-2.11524 29.60239,-5.82578 55.93128,-15.09556 78.60743,-27.83789 17.62405,7.53318 35.04677,8.30844 50.79882,4.14649 16.59907,-4.38576 31.34394,-14.21674 43.04102,-27.41016 -13.27237,11.76707 -28.59928,19.12574 -44.27344,21.16406 -12.3846,1.61054 -24.94472,-0.10447 -37.11719,-5.49414 12.93172,-8.54234 24.49434,-18.36261 34.58204,-29.48828 30.60815,-33.75758 47.10552,-78.72998 48.94726,-134.73828 -5.6419,56.08129 -25.85546,97.82148 -57.03711,126.76562 -0.69628,0.64633 -1.40545,1.27987 -2.11328,1.91407 -7.45018,-15.06561 -12.12588,-32.53601 -13.22851,-49.46485 -1.22475,-18.80361 1.9381,-37.02297 10.63671,-50.44922 -9.97883,12.7096 -14.78896,30.93989 -14.99804,50.56836 -0.19515,18.31946 3.6153,37.80658 10.94336,54.9961 -25.50593,20.50762 -57.73706,33.91585 -95.83789,40.72851 8.22955,-15.19942 17.00399,-31.13809 23.37304,-44.45703 11.6809,-24.42702 20.61293,-49.61174 22.15625,-77.68945 0.34115,-6.20658 0.2963,-12.52392 -0.1289,-18.96484 16.69036,-5.79603 26.67236,-16.21482 33.64257,-28.30665 7.13318,-12.3745 11.46843,-27.10964 16.73438,-41.3125 -6.8092,13.92756 -12.38052,27.60474 -20.58008,38.81641 -7.48418,10.23351 -16.80698,17.8747 -30.64844,21.73633 -2.45578,-19.96273 -8.78458,-41.25254 -20.11914,-64.66992 z" style="opacity:1;fill:#000000;fill-opacity:1;stroke:none;stroke-width:1;stroke-miterlimit:4;stroke-dasharray:none;stroke-opacity:1" inkscape:connector-curvature="0"/>
      <path style="opacity:1;fill:#9acd32;fill-opacity:1;stroke:none" d="m 522.87566,567.92213 a 35.314712,35.073615 0 0 0 -11.86422,31.31495 35.314712,35.073615 0 0 0 20.0289,26.92823 35.314712,35.073615 0 0 0 11.8654,-31.31512 35.314712,35.073615 0 0 0 -20.03008,-26.92806 z" id="path5965" inkscape:connector-curvature="0"/>
      <path inkscape:connector-curvature="0" id="path5967" d="m 557.14707,569.51634 a 33.727121,33.727121 0 0 0 -4.50024,31.85773 33.727121,33.727121 0 0 0 24.30914,21.10657 33.727121,33.727121 0 0 0 4.50128,-31.85812 33.727121,33.727121 0 0 0 -24.31018,-21.10618 z" style="opacity:1;fill:#9acd32;fill-opacity:1;stroke:none"/>
      <path style="opacity:1;fill:#9acd32;fill-opacity:1;stroke:none" d="m 587.97662,564.77754 a 29.012952,29.012952 0 0 0 -0.42066,27.67372 29.012952,29.012952 0 0 0 23.01389,15.40459 29.012952,29.012952 0 0 0 0.42151,-27.67417 29.012952,29.012952 0 0 0 -23.01474,-15.40414 z" id="path5969" inkscape:connector-curvature="0"/>
      <path inkscape:connector-curvature="0" id="path5971" d="m 613.16392,557.33405 a 26.184451,26.184451 0 0 0 4.00994,24.6547 26.184451,26.184451 0 0 0 22.888,10.04142 26.184451,26.184451 0 0 0 -4.00926,-24.65524 26.184451,26.184451 0 0 0 -22.88868,-10.04088 z" style="opacity:1;fill:#9acd32;fill-opacity:1;stroke:none"/>
      <path style="opacity:1;fill:#9acd32;fill-opacity:1;stroke:none" d="m 685.89762,508.82735 a 23.926831,23.926831 0 0 0 -22.52352,3.69756 23.926831,23.926831 0 0 0 -9.14468,20.92815 23.926831,23.926831 0 0 0 22.52403,-3.69692 23.926831,23.926831 0 0 0 9.14417,-20.92879 z" id="path5973" inkscape:connector-curvature="0"/>
      <path inkscape:connector-curvature="0" id="path5975" d="m 526.0877,553.80003 a 37.498456,37.498456 0 0 1 -0.54369,-35.76754 37.498456,37.498456 0 0 1 29.74483,-19.91002 37.498456,37.498456 0 0 1 0.54479,35.76812 37.498456,37.498456 0 0 1 -29.74593,19.90944 z" style="opacity:1;fill:#9acd32;fill-opacity:1;stroke:none"/>
      <path style="opacity:1;fill:#9acd32;fill-opacity:1;stroke:none" d="m 563.11967,557.49143 a 33.727121,33.727121 0 0 1 -0.48901,-32.17029 33.727121,33.727121 0 0 1 26.7533,-17.90761 33.727121,33.727121 0 0 1 0.49,32.17081 33.727121,33.727121 0 0 1 -26.75429,17.90709 z" id="path5977" inkscape:connector-curvature="0"/>
      <path inkscape:connector-curvature="0" id="path5979" d="m 601.00694,552.00187 a 29.012952,29.012952 0 0 1 -0.42066,-27.67372 29.012952,29.012952 0 0 1 23.01389,-15.40459 29.012952,29.012952 0 0 1 0.42151,27.67417 29.012952,29.012952 0 0 1 -23.01474,15.40414 z" style="opacity:1;fill:#9acd32;fill-opacity:1;stroke:none"/>
      <path style="opacity:1;fill:#9acd32;fill-opacity:1;stroke:none" d="m 610.69172,412.68464 a 15.813279,15.813279 0 0 1 -0.22928,-15.08334 15.813279,15.813279 0 0 1 12.54354,-8.39615 15.813279,15.813279 0 0 1 0.22974,15.08359 15.813279,15.813279 0 0 1 -12.544,8.3959 z" id="path5981" inkscape:connector-curvature="0"/>
      <path inkscape:connector-curvature="0" id="path6484" d="m 573.74533,459.02642 a 22.838402,22.838402 0 0 0 10.74214,18.95434 22.838402,22.838402 0 0 0 21.76189,1.28681 22.838402,22.838402 0 0 0 -10.74174,-18.95498 22.838402,22.838402 0 0 0 -21.76229,-1.28617 z" style="opacity:1;fill:#9acd32;fill-opacity:1;stroke:none"/>
      <path style="opacity:1;fill:#9acd32;fill-opacity:1;stroke:none" d="m 588.54113,445.85839 a 18.028155,18.028155 0 0 0 12.58735,11.71873 18.028155,18.028155 0 0 0 16.68841,-4.19827 18.028155,18.028155 0 0 0 -12.5872,-11.71932 18.028155,18.028155 0 0 0 -16.68856,4.19886 z" id="path6486" inkscape:connector-curvature="0"/>
      <path inkscape:connector-curvature="0" id="path6488" d="m 603.18736,427.44532 a 15.02175,15.02175 0 0 0 10.48826,9.76449 15.02175,15.02175 0 0 0 13.90542,-3.49816 15.02175,15.02175 0 0 0 -10.48813,-9.76498 15.02175,15.02175 0 0 0 -13.90555,3.49865 z" style="opacity:1;fill:#9acd32;fill-opacity:1;stroke:none"/>
      <path style="opacity:1;fill:#9acd32;fill-opacity:1;stroke:none" d="m 573.80331,444.9073 a 22.838402,22.838402 0 0 1 -8.25479,-20.16232 22.838402,22.838402 0 0 1 12.44433,-17.899 22.838402,22.838402 0 0 1 8.25555,20.1624 22.838402,22.838402 0 0 1 -12.44509,17.89892 z" id="path6490" inkscape:connector-curvature="0"/>
      <path inkscape:connector-curvature="0" id="path6492" d="m 594.72642,423.49192 a 18.028155,18.028155 0 0 1 -8.28989,-15.06811 18.028155,18.028155 0 0 1 8.1467,-15.15783 18.028155,18.028155 0 0 1 8.2905,15.06811 18.028155,18.028155 0 0 1 -8.14731,15.15783 z" style="opacity:1;fill:#9acd32;fill-opacity:1;stroke:none"/>
      <path style="opacity:1;fill:#9acd32;fill-opacity:1;stroke:none" d="m 562.14375,345.89897 a 15.02175,15.02175 0 0 1 -9.98431,-10.27922 15.02175,15.02175 0 0 1 3.20303,-13.97635 15.02175,15.02175 0 0 1 9.9848,10.27908 15.02175,15.02175 0 0 1 -3.20352,13.97649 z" id="path6494" inkscape:connector-curvature="0"/>
      <path inkscape:connector-curvature="0" id="path6496" d="m 543.73555,440.72802 a 24.63334,24.63334 0 0 1 -20.6868,-11.14717 24.63334,24.63334 0 0 1 -1.8889,-23.43722 24.63334,24.63334 0 0 1 20.68748,11.1467 24.63334,24.63334 0 0 1 1.88822,23.43769 z" style="opacity:1;fill:#9acd32;fill-opacity:1;stroke:none"/>
      <path style="opacity:1;fill:#9acd32;fill-opacity:1;stroke:none" d="m 552.49686,412.5376 a 19.248527,19.248527 0 0 1 -16.1647,-8.71042 19.248527,19.248527 0 0 1 -1.47599,-18.31388 19.248527,19.248527 0 0 1 16.16523,8.71005 19.248527,19.248527 0 0 1 1.47546,18.31425 z" id="path6498" inkscape:connector-curvature="0"/>
      <path inkscape:connector-curvature="0" id="path6500" d="m 558.22657,387.15082 a 15.771207,15.771207 0 0 1 -13.24449,-7.13685 15.771207,15.771207 0 0 1 -1.20934,-15.0054 15.771207,15.771207 0 0 1 13.24492,7.13654 15.771207,15.771207 0 0 1 1.20891,15.00571 z" style="opacity:1;fill:#9acd32;fill-opacity:1;stroke:none"/>
      <path style="opacity:1;fill:#9acd32;fill-opacity:1;stroke:none" d="m 559.69119,364.69328 a 15.771207,15.771207 0 0 1 -13.24449,-7.13685 15.771207,15.771207 0 0 1 -1.20934,-15.0054 15.771207,15.771207 0 0 1 13.24492,7.13654 15.771207,15.771207 0 0 1 1.20891,15.00571 z" id="path6502" inkscape:connector-curvature="0"/>
      <path inkscape:connector-curvature="0" id="path6504" d="m 567.23271,399.01865 a 19.248527,19.248527 0 0 0 17.6929,-4.91225 19.248527,19.248527 0 0 0 5.49717,-17.53162 19.248527,19.248527 0 0 0 -17.69334,4.91177 19.248527,19.248527 0 0 0 -5.49673,17.5321 z" style="opacity:1;fill:#9acd32;fill-opacity:1;stroke:none"/>
      <path style="opacity:1;fill:#9acd32;fill-opacity:1;stroke:none" d="m 568.18449,376.66347 a 15.237122,15.237122 0 0 0 14.00569,-3.88854 15.237122,15.237122 0 0 0 4.35155,-13.87801 15.237122,15.237122 0 0 0 -14.00604,3.88815 15.237122,15.237122 0 0 0 -4.3512,13.8784 z" id="path6506" inkscape:connector-curvature="0"/>
      <path inkscape:connector-curvature="0" id="path6508" d="m 566.22674,358.62026 a 14.434841,14.434841 0 0 0 13.26825,-3.68379 14.434841,14.434841 0 0 0 4.12242,-13.14729 14.434841,14.434841 0 0 0 -13.26857,3.68342 14.434841,14.434841 0 0 0 -4.1221,13.14766 z" style="opacity:1;fill:#9acd32;fill-opacity:1;stroke:none"/>
      <path inkscape:connector-curvature="0" id="path6050" d="m 178.50171,544.12118 a 37.498456,37.498456 0 0 1 1.63719,35.73418 37.498456,37.498456 0 0 1 -29.12208,20.8103 37.498456,37.498456 0 0 1 -1.63832,-35.73473 37.498456,37.498456 0 0 1 29.12321,-20.80975 z" style="opacity:1;fill:#9acd32;fill-opacity:1;stroke:none"/>
      <path style="opacity:1;fill:#9acd32;fill-opacity:1;stroke:none" d="m 140.09547,542.67448 a 33.727121,33.727121 0 0 1 -4.50162,31.85753 33.727121,33.727121 0 0 1 -29.20494,13.54597 33.727121,33.727121 0 0 1 4.50072,-31.85821 33.727121,33.727121 0 0 1 29.20584,-13.54529 z" id="path6052" inkscape:connector-curvature="0"/>
      <path inkscape:connector-curvature="0" id="path6054" d="m 104.77185,532.04687 a 29.012952,29.012952 0 0 1 -3.87241,27.40468 29.012952,29.012952 0 0 1 -25.122847,11.65259 29.012952,29.012952 0 0 1 3.871638,-27.40526 29.012952,29.012952 0 0 1 25.123619,-11.65201 z" style="opacity:1;fill:#9acd32;fill-opacity:1;stroke:none"/>
      <path style="opacity:1;fill:#9acd32;fill-opacity:1;stroke:none" d="m 76.526112,519.29406 a 26.184451,26.184451 0 0 1 -10.198069,22.80205 26.184451,26.184451 0 0 1 -24.697601,3.83648 26.184451,26.184451 0 0 1 10.197538,-22.80274 26.184451,26.184451 0 0 1 24.698132,-3.83579 z" id="path6056" inkscape:connector-curvature="0"/>
      <path inkscape:connector-curvature="0" id="path6058" d="m 12.119441,480.69509 a 23.926831,23.926831 0 0 1 22.82249,-0.33865 23.926831,23.926831 0 0 1 12.697232,18.98402 23.926831,23.926831 0 0 1 -22.822886,0.33937 23.926831,23.926831 0 0 1 -12.696836,-18.98474 z" style="opacity:1;fill:#9acd32;fill-opacity:1;stroke:none"/>
      <path inkscape:connector-curvature="0" id="path6062" d="m 170.32016,530.63603 a 33.727121,33.727121 0 0 0 5.46782,-31.70598 33.727121,33.727121 0 0 0 -23.65544,-21.83671 33.727121,33.727121 0 0 0 -5.46888,31.70635 33.727121,33.727121 0 0 0 23.6565,21.83634 z" style="opacity:1;fill:#9acd32;fill-opacity:1;stroke:none"/>
      <path style="opacity:1;fill:#9acd32;fill-opacity:1;stroke:none" d="m 132.29764,529.09371 a 29.012952,29.012952 0 0 0 4.70357,-27.27432 29.012952,29.012952 0 0 0 -20.34904,-18.78449 29.012952,29.012952 0 0 0 -4.70447,27.27462 29.012952,29.012952 0 0 0 20.34994,18.78419 z" id="path6064" inkscape:connector-curvature="0"/>
      <path inkscape:connector-curvature="0" id="path6066" d="m 97.863424,518.19439 a 24.48196,24.48196 0 0 0 3.969006,-23.01485 24.48196,24.48196 0 0 0 -17.171102,-15.8509 24.48196,24.48196 0 0 0 -3.969767,23.01511 24.48196,24.48196 0 0 0 17.171863,15.85064 z" style="opacity:1;fill:#9acd32;fill-opacity:1;stroke:none"/>
      <path style="opacity:1;fill:#9acd32;fill-opacity:1;stroke:none" d="m 68.215457,505.29001 a 21.632299,21.632299 0 0 0 3.507021,-20.33596 21.632299,21.632299 0 0 0 -15.172414,-14.00588 21.632299,21.632299 0 0 0 -3.507692,20.33619 21.632299,21.632299 0 0 0 15.173085,14.00565 z" id="path6068" inkscape:connector-curvature="0"/>
      <path inkscape:connector-curvature="0" id="path6070" d="m 53.710066,509.54107 a 21.314323,21.314323 0 0 1 -11.742262,16.59947 21.314323,21.314323 0 0 1 -20.328027,-0.83395 21.314323,21.314323 0 0 1 11.74195,-16.6001 21.314323,21.314323 0 0 1 20.328339,0.83458 z" style="opacity:1;fill:#9acd32;fill-opacity:1;stroke:none"/>
      <path style="opacity:1;fill:#9acd32;fill-opacity:1;stroke:none" d="m 133.44863,442.63512 a 25.77995,25.77995 0 0 1 -8.46474,23.09012 25.77995,25.77995 0 0 1 -23.99682,5.44897 25.77995,25.77995 0 0 1 8.46416,-23.09077 25.77995,25.77995 0 0 1 23.9974,-5.44832 z" id="path3529" inkscape:connector-curvature="0"/>
      <path inkscape:connector-curvature="0" id="path3531" d="m 114.56942,431.95058 a 23.187181,23.187181 0 0 1 -14.802984,16.43595 23.187181,23.187181 0 0 1 -21.855383,-3.4935 23.187181,23.187181 0 0 1 14.802731,-16.4367 23.187181,23.187181 0 0 1 21.855636,3.49425 z" style="opacity:1;fill:#9acd32;fill-opacity:1;stroke:none"/>
      <path style="opacity:1;fill:#9acd32;fill-opacity:1;stroke:none" d="m 98.021839,410.85868 a 19.94622,19.94622 0 0 1 -12.733911,14.13863 19.94622,19.94622 0 0 1 -18.800562,-3.0052 19.94622,19.94622 0 0 1 12.733694,-14.13927 19.94622,19.94622 0 0 1 18.800779,3.00584 z" id="path3533" inkscape:connector-curvature="0"/>
      <path inkscape:connector-curvature="0" id="path3535" d="m 90.231963,394.20279 a 18.001643,18.001643 0 0 1 -14.57294,9.08461 18.001643,18.001643 0 0 1 -15.555993,-7.29857 18.001643,18.001643 0 0 1 14.572902,-9.08523 18.001643,18.001643 0 0 1 15.556031,7.29919 z" style="opacity:1;fill:#9acd32;fill-opacity:1;stroke:none"/>
      <path style="opacity:1;fill:#9acd32;fill-opacity:1;stroke:none" d="m 70.285971,352.82614 a 16.449544,16.449544 0 0 1 13.14333,8.57281 16.449544,16.449544 0 0 1 -0.05169,15.70147 16.449544,16.449544 0 0 1 -13.143833,-8.57255 16.449544,16.449544 0 0 1 0.0522,-15.70173 z" id="path3537" inkscape:connector-curvature="0"/>
      <path inkscape:connector-curvature="0" id="path3541" d="m 111.77761,414.18202 a 18.739234,18.739234 0 0 0 12.36156,-12.91333 18.739234,18.739234 0 0 0 -4.12243,-17.40561 18.739234,18.739234 0 0 0 -12.36215,12.91317 18.739234,18.739234 0 0 0 4.12302,17.40577 z" style="opacity:1;fill:#9acd32;fill-opacity:1;stroke:none"/>
      <path style="opacity:1;fill:#9acd32;fill-opacity:1;stroke:none" d="m 98.176632,396.55876 a 16.831192,16.831192 0 0 0 11.102898,-11.59848 16.831192,16.831192 0 0 0 -3.70268,-15.63337 16.831192,16.831192 0 0 0 -11.103435,11.59834 16.831192,16.831192 0 0 0 3.703217,15.63351 z" id="path3543" inkscape:connector-curvature="0"/>
      <path inkscape:connector-curvature="0" id="path3549" d="m 513.7288,296.31045 a 22.838402,22.838402 0 0 1 12.55035,-17.80868 22.838402,22.838402 0 0 1 21.78313,0.85497 22.838402,22.838402 0 0 1 -12.55002,17.80937 22.838402,22.838402 0 0 1 -21.78346,-0.85566 z" style="opacity:1;fill:#9acd32;fill-opacity:1;stroke:none"/>
      <path inkscape:connector-curvature="0" id="path3551" d="m 531.56257,201.80272 a 15.02175,15.02175 0 0 1 -8.00018,-11.8889 15.02175,15.02175 0 0 1 5.63411,-13.18539 15.02175,15.02175 0 0 1 8.00069,11.88885 15.02175,15.02175 0 0 1 -5.63462,13.18544 z" style="opacity:1;fill:#9acd32;fill-opacity:1;stroke:none"/>
      <path style="opacity:1;fill:#9acd32;fill-opacity:1;stroke:none" d="m 500.93091,293.30391 a 24.63334,24.63334 0 0 1 -20.43156,-11.60838 24.63334,24.63334 0 0 1 -1.36273,-23.47368 24.63334,24.63334 0 0 1 20.43226,11.60791 24.63334,24.63334 0 0 1 1.36203,23.47415 z" id="path3553" inkscape:connector-curvature="0"/>
      <path inkscape:connector-curvature="0" id="path3555" d="m 513.19022,269.05273 a 19.248527,19.248527 0 0 1 -16.72269,-7.58423 19.248527,19.248527 0 0 1 -2.72535,-18.17 19.248527,19.248527 0 0 1 16.7232,7.58382 19.248527,19.248527 0 0 1 2.72484,18.17041 z" style="opacity:1;fill:#9acd32;fill-opacity:1;stroke:none"/>
      <path style="opacity:1;fill:#9acd32;fill-opacity:1;stroke:none" d="m 521.31278,245.00664 a 15.771207,15.771207 0 0 1 -14.01313,-5.47569 15.771207,15.771207 0 0 1 -3.02258,-14.74749 15.771207,15.771207 0 0 1 14.01354,5.47533 15.771207,15.771207 0 0 1 3.02217,14.74785 z" id="path3557" inkscape:connector-curvature="0"/>
      <path inkscape:connector-curvature="0" id="path3559" d="m 523.37038,224.74484 a 15.771207,15.771207 0 0 1 -11.76658,-9.37544 15.771207,15.771207 0 0 1 1.47461,-14.98165 15.771207,15.771207 0 0 1 11.76706,9.3752 15.771207,15.771207 0 0 1 -1.47509,14.98189 z" style="opacity:1;fill:#9acd32;fill-opacity:1;stroke:none"/>
      <path style="opacity:1;fill:#9acd32;fill-opacity:1;stroke:none" d="m 522.55416,269.04438 a 19.248527,19.248527 0 0 0 18.33549,0.98923 19.248527,19.248527 0 0 0 10.8032,-14.86162 19.248527,19.248527 0 0 0 -18.33576,-0.98982 19.248527,19.248527 0 0 0 -10.80293,14.86221 z" id="path3561" inkscape:connector-curvature="0"/>
      <path inkscape:connector-curvature="0" id="path3563" d="m 529.88433,244.12695 a 15.237122,15.237122 0 0 0 14.45697,1.50866 15.237122,15.237122 0 0 0 9.13,-11.32159 15.237122,15.237122 0 0 0 -14.45715,-1.50915 15.237122,15.237122 0 0 0 -9.12982,11.32208 z" style="opacity:1;fill:#9acd32;fill-opacity:1;stroke:none"/>
      <path style="opacity:1;fill:#9acd32;fill-opacity:1;stroke:none" d="m 532.34514,224.32283 a 14.434841,14.434841 0 0 0 13.71155,-1.26899 14.434841,14.434841 0 0 0 6.39165,-12.20624 14.434841,14.434841 0 0 0 -13.71179,1.26857 14.434841,14.434841 0 0 0 -6.39141,12.20666 z" id="path3565" inkscape:connector-curvature="0"/>
      <path style="opacity:1;fill:#9acd32;fill-opacity:1;stroke:none" d="m 527.97116,350.93579 a 12.03164,12.03164 0 0 1 4.28433,-10.64798 12.03164,12.03164 0 0 1 11.27322,-2.19293 12.03164,12.03164 0 0 1 -4.28406,10.64829 12.03164,12.03164 0 0 1 -11.27349,2.19262 z" id="path3567" inkscape:connector-curvature="0"/>
      <path style="opacity:1;fill:#9acd32;fill-opacity:1;stroke:none" d="m 454.06221,296.18095 a 19.664927,19.664927 0 0 0 -11.43318,-14.87266 19.664927,19.664927 0 0 0 -18.70962,1.51354 19.664927,19.664927 0 0 0 11.43293,14.87327 19.664927,19.664927 0 0 0 18.70987,-1.51415 z" id="path3571" inkscape:connector-curvature="0"/>
      <path style="opacity:1;fill:#9acd32;fill-opacity:1;stroke:none" d="m 469.44332,231.41609 a 12.934426,12.934426 0 0 0 10.67794,-6.18284 12.934426,12.934426 0 0 0 0.6147,-12.33096 12.934426,12.934426 0 0 0 -10.67832,6.1826 12.934426,12.934426 0 0 0 -0.61432,12.3312 z" id="path3573" inkscape:connector-curvature="0"/>
      <path inkscape:connector-curvature="0" id="path3575" d="m 503.74289,311.83569 a 23.540221,23.540221 0 0 0 19.55831,11.03421 23.540221,23.540221 0 0 0 19.90488,-10.42532 23.540221,23.540221 0 0 0 -19.55828,-11.03503 23.540221,23.540221 0 0 0 -19.90491,10.42614 z" style="opacity:1;fill:#9acd32;fill-opacity:1;stroke:none"/>
      <path style="opacity:1;fill:#9acd32;fill-opacity:1;stroke:none" d="m 464.85291,313.2904 a 19.457791,19.457791 0 0 0 18.39116,-2.51112 19.457791,19.457791 0 0 0 7.89358,-16.81213 19.457791,19.457791 0 0 0 -18.3915,2.51059 19.457791,19.457791 0 0 0 -7.89324,16.81266 z" id="path3577" inkscape:connector-curvature="0"/>
      <path inkscape:connector-curvature="0" id="path3579" d="m 460.58577,260.42243 a 13.579744,13.579744 0 0 0 12.91183,1.04965 13.579744,13.579744 0 0 0 7.90409,-10.2735 13.579744,13.579744 0 0 0 -12.912,-1.05009 13.579744,13.579744 0 0 0 -7.90392,10.27394 z" style="opacity:1;fill:#9acd32;fill-opacity:1;stroke:none"/>
      <path style="opacity:1;fill:#9acd32;fill-opacity:1;stroke:none" d="m 466.15052,246.89337 a 13.579744,13.579744 0 0 0 12.64458,-2.81632 13.579744,13.579744 0 0 0 4.5118,-12.15168 13.579744,13.579744 0 0 0 -12.64486,2.81596 13.579744,13.579744 0 0 0 -4.51152,12.15204 z" id="path3581" inkscape:connector-curvature="0"/>
      <path inkscape:connector-curvature="0" id="path3583" d="m 452.59237,276.6449 a 16.573878,16.573878 0 0 1 -15.71859,-1.70384 16.573878,16.573878 0 0 1 -7.11805,-14.12846 16.573878,16.573878 0 0 1 15.7189,1.70338 16.573878,16.573878 0 0 1 7.11774,14.12892 z" style="opacity:1;fill:#9acd32;fill-opacity:1;stroke:none"/>
      <path style="opacity:1;fill:#9acd32;fill-opacity:1;stroke:none" d="m 453.79542,259.43649 a 13.119871,13.119871 0 0 1 -11.75843,-4.28746 13.119871,13.119871 0 0 1 -2.79427,-12.20757 13.119871,13.119871 0 0 1 11.75876,4.28715 13.119871,13.119871 0 0 1 2.79394,12.20788 z" id="path3585" inkscape:connector-curvature="0"/>
      <path inkscape:connector-curvature="0" id="path3587" d="m 459.36362,243.18026 a 12.42907,12.42907 0 0 1 -10.13341,-6.15598 12.42907,12.42907 0 0 1 -0.34107,-11.85898 12.42907,12.42907 0 0 1 10.13375,6.15575 12.42907,12.42907 0 0 1 0.34073,11.85921 z" style="opacity:1;fill:#9acd32;fill-opacity:1;stroke:none"/>
      <path inkscape:connector-curvature="0" id="path3589" d="m 457.96787,323.29865 a 24.76097,24.76097 0 0 0 -14.39602,-18.72682 24.76097,24.76097 0 0 0 -23.5581,1.90577 24.76097,24.76097 0 0 0 14.3957,18.72758 24.76097,24.76097 0 0 0 23.55842,-1.90653 z" style="opacity:1;fill:#9acd32;fill-opacity:1;stroke:none"/>
      <path inkscape:connector-curvature="0" id="path3593" d="m 482.34649,372.26948 a 16.888608,16.888608 0 0 1 -2.39155,-15.93241 16.888608,16.888608 0 0 1 12.08062,-10.674 16.888608,16.888608 0 0 1 2.39209,15.93259 16.888608,16.888608 0 0 1 -12.08116,10.67382 z" style="opacity:1;fill:#9acd32;fill-opacity:1;stroke:none"/>
      <path style="opacity:1;fill:#9acd32;fill-opacity:1;stroke:none" d="m 500.74367,367.326 a 13.837616,13.837616 0 0 1 -1.95951,-13.05417 13.837616,13.837616 0 0 1 9.8982,-8.74569 13.837616,13.837616 0 0 1 1.95996,13.05431 13.837616,13.837616 0 0 1 -9.89865,8.74555 z" id="path3595" inkscape:connector-curvature="0"/>
      <path inkscape:connector-curvature="0" id="path3597" d="m 516.30446,357.02406 a 13.837616,13.837616 0 0 1 -1.95951,-13.05416 13.837616,13.837616 0 0 1 9.89821,-8.7457 13.837616,13.837616 0 0 1 1.95995,13.05432 13.837616,13.837616 0 0 1 -9.89865,8.74554 z" style="opacity:1;fill:#9acd32;fill-opacity:1;stroke:none"/>
      <path inkscape:connector-curvature="0" id="path3601" d="m 501.93388,373.72578 a 13.837616,13.837616 0 0 0 8.00137,10.499 13.837616,13.837616 0 0 0 13.16972,-1.00996 13.837616,13.837616 0 0 0 -8.00116,-10.49943 13.837616,13.837616 0 0 0 -13.16993,1.01039 z" style="opacity:1;fill:#9acd32;fill-opacity:1;stroke:none"/>
      <path style="opacity:1;fill:#9acd32;fill-opacity:1;stroke:none" d="m 518.21174,364.36668 a 13.837616,13.837616 0 0 0 8.00136,10.499 13.837616,13.837616 0 0 0 13.16973,-1.00996 13.837616,13.837616 0 0 0 -8.00117,-10.49943 13.837616,13.837616 0 0 0 -13.16992,1.01039 z" id="path3603" inkscape:connector-curvature="0"/>
      <path inkscape:connector-curvature="0" id="path3605" d="m 490.8674,397.8037 a 12.03164,12.03164 0 0 1 4.28433,-10.64798 12.03164,12.03164 0 0 1 11.27322,-2.19293 12.03164,12.03164 0 0 1 -4.28406,10.64829 12.03164,12.03164 0 0 1 -11.27349,2.19262 z" style="opacity:1;fill:#9acd32;fill-opacity:1;stroke:none"/>
      <path style="opacity:1;fill:#9acd32;fill-opacity:1;stroke:none" d="m 432.76415,458.63566 a 20.746392,20.746392 0 0 1 -10.03039,-17.06094 20.746392,20.746392 0 0 1 8.87382,-17.70352 20.746392,20.746392 0 0 1 10.03109,17.06091 20.746392,20.746392 0 0 1 -8.87452,17.70355 z" id="path3607" inkscape:connector-curvature="0"/>
      <path inkscape:connector-curvature="0" id="path3609" d="m 451.67899,444.0588 a 16.388337,16.388337 0 0 1 -10.32716,-11.73718 16.388337,16.388337 0 0 1 4.24108,-15.05724 16.388337,16.388337 0 0 1 10.3277,11.73704 16.388337,16.388337 0 0 1 -4.24162,15.05738 z" style="opacity:1;fill:#9acd32;fill-opacity:1;stroke:none"/>
      <path style="opacity:1;fill:#9acd32;fill-opacity:1;stroke:none" d="m 466.25796,429.68839 a 15.318125,15.318125 0 0 1 -9.73499,-10.89782 15.318125,15.318125 0 0 1 3.8582,-14.10336 15.318125,15.318125 0 0 1 9.73549,10.89768 15.318125,15.318125 0 0 1 -3.8587,14.1035 z" id="path3611" inkscape:connector-curvature="0"/>
      <path inkscape:connector-curvature="0" id="path3613" d="m 476.91423,414.53384 a 13.184528,13.184528 0 0 1 -6.89126,-10.52149 13.184528,13.184528 0 0 1 5.08878,-11.51028 13.184528,13.184528 0 0 1 6.89169,10.52143 13.184528,13.184528 0 0 1 -5.08921,11.51034 z" style="opacity:1;fill:#9acd32;fill-opacity:1;stroke:none"/>
      <path inkscape:connector-curvature="0" id="path3615" d="m 430.73459,475.94424 a 21.816647,21.816647 0 0 0 14.04777,15.35577 21.816647,21.816647 0 0 0 20.53738,-3.44672 21.816647,21.816647 0 0 0 -14.0475,-15.35645 21.816647,21.816647 0 0 0 -20.53765,3.4474 z" style="opacity:1;fill:#9acd32;fill-opacity:1;stroke:none"/>
      <path style="opacity:1;fill:#9acd32;fill-opacity:1;stroke:none" d="m 448.86715,460.45174 a 16.388337,16.388337 0 0 0 9.87171,12.12275 16.388337,16.388337 0 0 0 15.55072,-1.69772 16.388337,16.388337 0 0 0 -9.87148,-12.12326 16.388337,16.388337 0 0 0 -15.55095,1.69823 z" id="path3617" inkscape:connector-curvature="0"/>
      <path inkscape:connector-curvature="0" id="path3619" d="m 462.02928,446.97993 a 15.318125,15.318125 0 0 0 9.1416,11.40016 15.318125,15.318125 0 0 0 14.54673,-1.47752 15.318125,15.318125 0 0 0 -9.14138,-11.40063 15.318125,15.318125 0 0 0 -14.54695,1.47799 z" style="opacity:1;fill:#9acd32;fill-opacity:1;stroke:none"/>
      <path style="opacity:1;fill:#9acd32;fill-opacity:1;stroke:none" d="m 432.504,508.21633 a 13.184528,13.184528 0 0 0 12.54172,0.94683 13.184528,13.184528 0 0 0 7.61643,-10.01859 13.184528,13.184528 0 0 0 -12.54188,-0.94724 13.184528,13.184528 0 0 0 -7.61627,10.019 z" id="path3621" inkscape:connector-curvature="0"/>
      <path inkscape:connector-curvature="0" id="path3623" d="m 498.83168,423.56705 a 12.041944,12.041944 0 0 1 -3.57604,-10.91663 12.041944,12.041944 0 0 1 7.22374,-8.94083 12.041944,12.041944 0 0 1 3.57643,10.91671 12.041944,12.041944 0 0 1 -7.22413,8.94075 z" style="opacity:1;fill:#9acd32;fill-opacity:1;stroke:none"/>
      <path inkscape:connector-curvature="0" id="path3625" d="m 412.64372,422.2933 a 13.184528,13.184528 0 0 0 12.4723,-1.62262 13.184528,13.184528 0 0 0 5.42064,-11.35776 13.184528,13.184528 0 0 0 -12.47253,1.62224 13.184528,13.184528 0 0 0 -5.42041,11.35814 z" style="opacity:1;fill:#9acd32;fill-opacity:1;stroke:none"/>
      <path style="opacity:1;fill:#9acd32;fill-opacity:1;stroke:none" d="m 401.59825,430.07387 a 15.556798,15.556798 0 0 0 4.49941,-14.14193 15.556798,15.556798 0 0 0 -9.43038,-11.47048 15.556798,15.556798 0 0 0 -4.49994,14.14197 15.556798,15.556798 0 0 0 9.43091,11.47044 z" id="path3627" inkscape:connector-curvature="0"/>
      <path inkscape:connector-curvature="0" id="path3629" d="m 391.64174,442.66928 a 16.605437,16.605437 0 0 0 -0.0192,-15.84079 16.605437,16.605437 0 0 0 -13.31479,-8.59938 16.605437,16.605437 0 0 0 0.0187,15.841 16.605437,16.605437 0 0 0 13.31532,8.59917 z" style="opacity:1;fill:#9acd32;fill-opacity:1;stroke:none"/>
      <path style="opacity:1;fill:#9acd32;fill-opacity:1;stroke:none" d="m 384.86263,457.34488 a 18.475926,18.475926 0 0 0 -5.24759,-16.82585 18.475926,18.475926 0 0 0 -16.98573,-4.74395 18.475926,18.475926 0 0 0 5.24708,16.82625 18.475926,18.475926 0 0 0 16.98623,4.74355 z" id="path3631" inkscape:connector-curvature="0"/>
      <path inkscape:connector-curvature="0" id="path3633" d="m 395.70527,460.37655 a 16.388337,16.388337 0 0 0 15.31048,3.16244 16.388337,16.388337 0 0 0 10.98317,-11.139 16.388337,16.388337 0 0 0 -15.31063,-3.16297 16.388337,16.388337 0 0 0 -10.98302,11.13953 z" style="opacity:1;fill:#9acd32;fill-opacity:1;stroke:none"/>
      <path style="opacity:1;fill:#9acd32;fill-opacity:1;stroke:none" d="m 400.67211,445.5313 a 13.184528,13.184528 0 0 0 12.57731,-0.0468 13.184528,13.184528 0 0 0 6.80129,-10.58889 13.184528,13.184528 0 0 0 -12.5775,0.0464 13.184528,13.184528 0 0 0 -6.8011,10.58929 z" id="path3635" inkscape:connector-curvature="0"/>
      <path style="opacity:1;fill:#9acd32;fill-opacity:1;stroke:none" d="m 632.13751,548.01616 a 22.015391,22.015391 0 0 0 9.98792,18.47453 22.015391,22.015391 0 0 0 20.94871,1.65931 22.015391,22.015391 0 0 0 -9.98754,-18.47515 22.015391,22.015391 0 0 0 -20.94909,-1.65869 z" id="path3637" inkscape:connector-curvature="0"/>
      <path style="opacity:1;fill:#9acd32;fill-opacity:1;stroke:none" d="m 267.64029,406.39645 a 22.838402,22.838402 0 0 1 14.09314,-16.61457 22.838402,22.838402 0 0 1 21.61931,2.80019 22.838402,22.838402 0 0 1 -14.09287,16.61529 22.838402,22.838402 0 0 1 -21.61958,-2.80091 z" id="path3639" inkscape:connector-curvature="0"/>
      <path style="opacity:1;fill:#9acd32;fill-opacity:1;stroke:none" d="m 393.43699,162.12596 a 15.02175,15.02175 0 0 1 -12.07213,-7.72091 15.02175,15.02175 0 0 1 -0.0812,-14.33846 15.02175,15.02175 0 0 1 12.07258,7.72067 15.02175,15.02175 0 0 1 0.0807,14.3387 z" id="path3641" inkscape:connector-curvature="0"/>
      <path inkscape:connector-curvature="0" id="path3643" d="m 292.3914,200.2656 a 18.225427,18.225427 0 0 1 -8.66949,-15.07047 18.225427,18.225427 0 0 1 7.94221,-15.47791 18.225427,18.225427 0 0 1 8.6701,15.07044 18.225427,18.225427 0 0 1 -7.94282,15.47794 z" style="opacity:1;fill:#9acd32;fill-opacity:1;stroke:none"/>
      <path style="opacity:1;fill:#9acd32;fill-opacity:1;stroke:none" d="m 405.3106,217.46112 a 19.248527,19.248527 0 0 1 -18.35971,-0.29942 19.248527,19.248527 0 0 1 -9.73408,-15.58282 19.248527,19.248527 0 0 1 18.36003,0.29884 19.248527,19.248527 0 0 1 9.73376,15.5834 z" id="path3645" inkscape:connector-curvature="0"/>
      <path inkscape:connector-curvature="0" id="path3647" d="m 401.20034,191.04871 a 18.943908,18.943908 0 0 1 -16.96707,6.22093 18.943908,18.943908 0 0 1 -14.45295,-10.86683 18.943908,18.943908 0 0 1 16.96714,-6.2216 18.943908,18.943908 0 0 1 14.45288,10.8675 z" style="opacity:1;fill:#9acd32;fill-opacity:1;stroke:none"/>
      <path style="opacity:1;fill:#9acd32;fill-opacity:1;stroke:none" d="m 394.8959,172.70479 a 15.771207,15.771207 0 0 1 -14.56493,3.77015 15.771207,15.771207 0 0 1 -11.08808,-10.18226 15.771207,15.771207 0 0 1 14.56502,-3.77069 15.771207,15.771207 0 0 1 11.08799,10.1828 z" id="path3649" inkscape:connector-curvature="0"/>
      <path inkscape:connector-curvature="0" id="path3651" d="m 404.62114,185.40936 a 19.248527,19.248527 0 0 0 17.21352,-6.39247 19.248527,19.248527 0 0 0 3.99322,-17.93408 19.248527,19.248527 0 0 0 -17.214,6.39204 19.248527,19.248527 0 0 0 -3.99274,17.93451 z" style="opacity:1;fill:#9acd32;fill-opacity:1;stroke:none"/>
      <path style="opacity:1;fill:#9acd32;fill-opacity:1;stroke:none" d="m 465.3801,166.46843 a 15.237122,15.237122 0 0 0 13.86244,-4.37183 15.237122,15.237122 0 0 0 3.86774,-14.02055 15.237122,15.237122 0 0 0 -13.8628,4.37145 15.237122,15.237122 0 0 0 -3.86738,14.02093 z" id="path3653" inkscape:connector-curvature="0"/>
      <path inkscape:connector-curvature="0" id="path3655" d="m 398.23872,167.33831 a 14.434841,14.434841 0 0 0 12.07278,-6.62306 14.434841,14.434841 0 0 0 1.00357,-13.74185 14.434841,14.434841 0 0 0 -12.07317,6.62278 14.434841,14.434841 0 0 0 -1.00318,13.74213 z" style="opacity:1;fill:#9acd32;fill-opacity:1;stroke:none"/>
      <path style="opacity:1;fill:#9acd32;fill-opacity:1;stroke:none" d="m 352.13453,313.81694 a 21.173984,21.173984 0 0 0 12.61745,-15.77331 21.173984,21.173984 0 0 0 -6.38527,-19.176 21.173984,21.173984 0 0 0 -12.61816,15.77316 21.173984,21.173984 0 0 0 6.38598,19.17615 z" id="path3657" inkscape:connector-curvature="0"/>
      <path style="opacity:1;fill:#9acd32;fill-opacity:1;stroke:none" d="m 458.68746,191.24791 a 14.650642,14.650642 0 0 0 12.30547,6.62602 14.650642,14.650642 0 0 0 12.25778,-6.73135 14.650642,14.650642 0 0 0 -12.30545,-6.62653 14.650642,14.650642 0 0 0 -12.2578,6.73186 z" id="path3659" inkscape:connector-curvature="0"/>
      <path inkscape:connector-curvature="0" id="path3661" d="m 462.29898,180.1077 a 13.579744,13.579744 0 0 0 12.71222,2.49327 13.579744,13.579744 0 0 0 9.00802,-9.32069 13.579744,13.579744 0 0 0 -12.71234,-2.49372 13.579744,13.579744 0 0 0 -9.0079,9.32114 z" style="opacity:1;fill:#9acd32;fill-opacity:1;stroke:none"/>
      <path inkscape:connector-curvature="0" id="path3663" d="m 450.95481,206.3862 a 15.721541,15.721541 0 0 0 13.20496,7.11035 15.721541,15.721541 0 0 0 13.15377,-7.22338 15.721541,15.721541 0 0 0 -13.20493,-7.1109 15.721541,15.721541 0 0 0 -13.1538,7.22393 z" style="opacity:1;fill:#9acd32;fill-opacity:1;stroke:none"/>
      <path inkscape:connector-curvature="0" id="path3665" d="m 455.16395,183.61123 a 13.579744,13.579744 0 0 1 -12.59323,-3.03774 13.579744,13.579744 0 0 1 -4.29788,-12.22897 13.579744,13.579744 0 0 1 12.59353,3.03738 13.579744,13.579744 0 0 1 4.29758,12.22933 z" style="opacity:1;fill:#9acd32;fill-opacity:1;stroke:none"/>
      <path style="opacity:1;fill:#9acd32;fill-opacity:1;stroke:none" d="m 460.7483,170.98783 a 13.579744,13.579744 0 0 1 -11.13127,-6.6266 13.579744,13.579744 0 0 1 -0.48857,-12.95303 13.579744,13.579744 0 0 1 11.13166,6.62634 13.579744,13.579744 0 0 1 0.48818,12.95329 z" id="path3667" inkscape:connector-curvature="0"/>
      <path style="opacity:1;fill:#9acd32;fill-opacity:1;stroke:none" d="m 448.13438,199.07528 a 15.887577,15.887577 0 0 1 -14.73341,-3.554 15.887577,15.887577 0 0 1 -5.02829,-14.30724 15.887577,15.887577 0 0 1 14.73376,3.55357 15.887577,15.887577 0 0 1 5.02794,14.30767 z" id="path3669" inkscape:connector-curvature="0"/>
      <path style="opacity:1;fill:#9acd32;fill-opacity:1;stroke:none" d="m 413.45339,216.62006 a 15.78989,15.78989 0 0 0 14.84782,-2.53567 15.78989,15.78989 0 0 0 5.94584,-13.8495 15.78989,15.78989 0 0 0 -14.84815,2.53522 15.78989,15.78989 0 0 0 -5.94551,13.84995 z" id="path3671" inkscape:connector-curvature="0"/>
      <path inkscape:connector-curvature="0" id="path3673" d="m 333.86313,300.52687 a 19.267884,19.267884 0 0 0 11.48162,-14.35338 19.267884,19.267884 0 0 0 -5.81046,-17.44975 19.267884,19.267884 0 0 0 -11.48227,14.35324 19.267884,19.267884 0 0 0 5.81111,17.44989 z" style="opacity:1;fill:#9acd32;fill-opacity:1;stroke:none"/>
      <path style="opacity:1;fill:#9acd32;fill-opacity:1;stroke:none" d="m 316.74221,278.09831 a 16.112793,16.737288 19.16644 0 0 13.16279,-8.62481 16.112793,16.737288 19.16644 0 0 0.3869,-15.913 16.112793,16.737288 19.16644 0 0 -13.16326,8.62451 16.112793,16.737288 19.16644 0 0 -0.38643,15.9133 z" id="path3675" inkscape:connector-curvature="0"/>
      <path inkscape:connector-curvature="0" id="path3677" d="m 304.70734,255.54176 a 16.112793,16.737288 30.455771 0 0 14.59653,-5.88113 16.112793,16.737288 30.455771 0 0 3.49459,-15.52936 16.112793,16.737288 30.455771 0 0 -14.59693,5.88075 16.112793,16.737288 30.455771 0 0 -3.49419,15.52974 z" style="opacity:1;fill:#9acd32;fill-opacity:1;stroke:none"/>
      <path style="opacity:1;fill:#9acd32;fill-opacity:1;stroke:none" d="m 298.51078,231.83921 a 16.112793,16.737288 35.037739 0 0 15.01969,-4.69629 16.112793,16.737288 35.037739 0 0 4.72399,-15.20056 16.112793,16.737288 35.037739 0 0 -15.02006,4.69588 16.112793,16.737288 35.037739 0 0 -4.72362,15.20097 z" id="path3679" inkscape:connector-curvature="0"/>
      <path style="opacity:1;fill:#9acd32;fill-opacity:1;stroke:none" d="m 355.28478,200.09415 a 13.943093,13.943093 0 0 1 -6.63247,-11.52944 13.943093,13.943093 0 0 1 6.07607,-11.84114 13.943093,13.943093 0 0 1 6.63293,11.52941 13.943093,13.943093 0 0 1 -6.07653,11.84117 z" id="path3681" inkscape:connector-curvature="0"/>
      <path style="opacity:1;fill:#9acd32;fill-opacity:1;stroke:none" d="m 380.25811,261.88391 a 18.249972,18.249972 0 0 0 16.84557,-4.39559 18.249972,18.249972 0 0 0 5.47021,-16.53892 18.249972,18.249972 0 0 0 -16.84597,4.39511 18.249972,18.249972 0 0 0 -5.46981,16.5394 z" id="path3683" inkscape:connector-curvature="0"/>
      <path inkscape:connector-curvature="0" id="path3685" d="m 370.48163,248.25588 a 17.4716,17.4716 0 0 0 16.1271,-4.20812 17.4716,17.4716 0 0 0 5.2369,-15.83353 17.4716,17.4716 0 0 0 -16.12747,4.20766 17.4716,17.4716 0 0 0 -5.23653,15.83399 z" style="opacity:1;fill:#9acd32;fill-opacity:1;stroke:none"/>
      <path style="opacity:1;fill:#9acd32;fill-opacity:1;stroke:none" d="m 362.60872,232.84209 a 13.579744,13.579744 0 0 0 12.53473,-3.27075 13.579744,13.579744 0 0 0 4.07037,-12.30656 13.579744,13.579744 0 0 0 -12.53503,3.27039 13.579744,13.579744 0 0 0 -4.07007,12.30692 z" id="path3687" inkscape:connector-curvature="0"/>
      <path inkscape:connector-curvature="0" id="path3689" d="m 357.72665,218.68408 a 13.579744,13.579744 0 0 0 12.53473,-3.27075 13.579744,13.579744 0 0 0 4.07037,-12.30656 13.579744,13.579744 0 0 0 -12.53503,3.27039 13.579744,13.579744 0 0 0 -4.07007,12.30692 z" style="opacity:1;fill:#9acd32;fill-opacity:1;stroke:none"/>
      <path style="opacity:1;fill:#9acd32;fill-opacity:1;stroke:none" d="m 372.41479,269.76318 a 16.573878,16.573878 0 0 1 -14.83582,5.46586 16.573878,16.573878 0 0 1 -12.65963,-9.48756 16.573878,16.573878 0 0 1 14.8359,-5.46641 16.573878,16.573878 0 0 1 12.65955,9.48811 z" id="path3691" inkscape:connector-curvature="0"/>
      <path inkscape:connector-curvature="0" id="path3693" d="m 355.81574,231.55464 a 15.396739,15.516031 0 0 1 -13.78213,5.11699 15.396739,15.516031 0 0 1 -11.7605,-8.882 15.396739,15.516031 0 0 1 13.7822,-5.11751 15.396739,15.516031 0 0 1 11.76043,8.88252 z" style="opacity:1;fill:#9acd32;fill-opacity:1;stroke:none"/>
      <path style="opacity:1;fill:#9acd32;fill-opacity:1;stroke:none" d="m 362.16243,251.69951 a 15.985309,16.573878 0 0 1 -14.30897,5.46586 15.985309,16.573878 0 0 1 -12.21006,-9.48756 15.985309,16.573878 0 0 1 14.30905,-5.46641 15.985309,16.573878 0 0 1 12.20998,9.48811 z" id="path3695" inkscape:connector-curvature="0"/>
      <path style="opacity:1;fill:#9acd32;fill-opacity:1;stroke:none" d="m 352.46386,217.22925 a 15.396739,15.516031 19.858765 0 1 -14.7008,0.13087 15.396739,15.516031 19.858765 0 1 -8.04389,-12.34889 15.396739,15.516031 19.858765 0 1 14.70104,-0.13133 15.396739,15.516031 19.858765 0 1 8.04365,12.34935 z" id="path3697" inkscape:connector-curvature="0"/>
      <path style="opacity:1;fill:#9acd32;fill-opacity:1;stroke:none" d="m 505.13362,479.2647 a 17.523715,17.57734 0 0 0 16.08244,-4.57532 17.523715,17.57734 0 0 0 4.91596,-16.03708 17.523715,17.57734 0 0 0 -16.08284,4.57485 17.523715,17.57734 0 0 0 -4.91556,16.03755 z" id="path3701" inkscape:connector-curvature="0"/>
      <path inkscape:connector-curvature="0" id="path3703" d="m 497.83129,442.07403 a 13.579744,13.579744 0 0 0 12.2815,-4.12092 13.579744,13.579744 0 0 0 3.21859,-12.5563 13.579744,13.579744 0 0 0 -12.2818,4.12061 13.579744,13.579744 0 0 0 -3.21827,12.55661 z" style="opacity:1;fill:#9acd32;fill-opacity:1;stroke:none"/>
      <path inkscape:connector-curvature="0" id="path3705" d="m 500.1891,459.30645 a 14.368538,15.178783 0 0 0 13.18676,-3.95098 14.368538,15.178783 0 0 0 4.03084,-13.8487 14.368538,15.178783 0 0 0 -13.1871,3.95057 14.368538,15.178783 0 0 0 -4.0305,13.84911 z" style="opacity:1;fill:#9acd32;fill-opacity:1;stroke:none"/>
      <path style="opacity:1;fill:#9acd32;fill-opacity:1;stroke:none" d="m 423.86566,382.37786 a 22.838402,22.838402 0 0 0 10.74214,18.95434 22.838402,22.838402 0 0 0 21.76189,1.28681 22.838402,22.838402 0 0 0 -10.74174,-18.95498 22.838402,22.838402 0 0 0 -21.76229,-1.28617 z" id="path3707" inkscape:connector-curvature="0"/>
      <path style="opacity:1;fill:#9acd32;fill-opacity:1;stroke:none" d="m 490.87373,442.56224 a 13.579744,13.579744 0 0 1 -12.2815,-4.12092 13.579744,13.579744 0 0 1 -3.21859,-12.5563 13.579744,13.579744 0 0 1 12.2818,4.12061 13.579744,13.579744 0 0 1 3.21827,12.55661 z" id="path3709" inkscape:connector-curvature="0"/>
      <path inkscape:connector-curvature="0" id="path3711" d="m 495.75261,490.99195 a 17.57734,17.523715 59.219929 0 1 -16.15843,4.29926 17.57734,17.523715 59.219929 0 1 -12.43037,-11.26235 17.57734,17.523715 59.219929 0 1 16.15853,-4.29987 17.57734,17.523715 59.219929 0 1 12.43027,11.26296 z" style="opacity:1;fill:#9acd32;fill-opacity:1;stroke:none"/>
      <path style="opacity:1;fill:#9acd32;fill-opacity:1;stroke:none" d="m 493.31157,469.74293 a 12.147247,11.345746 1.1270087 0 1 -11.19159,2.77736 12.147247,11.345746 1.1270087 0 1 -8.60947,-7.27559 12.147247,11.345746 1.1270087 0 1 11.19166,-2.77775 12.147247,11.345746 1.1270087 0 1 8.6094,7.27598 z" id="path3713" inkscape:connector-curvature="0"/>
      <path style="opacity:1;fill:#9acd32;fill-opacity:1;stroke:none" d="m 417.59514,535.98239 a 13.579744,13.579744 0 0 0 12.56296,3.16058 13.579744,13.579744 0 0 0 9.48726,-8.83243 13.579744,13.579744 0 0 0 -12.56304,-3.161 13.579744,13.579744 0 0 0 -9.48716,8.83286 z" id="path3715" inkscape:connector-curvature="0"/>
      <path style="opacity:1;fill:#9acd32;fill-opacity:1;stroke:none" d="m 417.00767,558.77146 a 14.368538,15.178783 7.4990265 0 0 13.58962,-2.19619 14.368538,15.178783 7.4990265 0 0 5.80375,-13.20419 14.368538,15.178783 7.4990265 0 0 -13.5899,2.19574 14.368538,15.178783 7.4990265 0 0 -5.80347,13.20464 z" id="path3717" inkscape:connector-curvature="0"/>
      <path inkscape:connector-curvature="0" id="path3719" d="m 424.43004,521.33617 a 13.579744,13.579744 0 0 0 12.56296,3.16058 13.579744,13.579744 0 0 0 9.48726,-8.83243 13.579744,13.579744 0 0 0 -12.56304,-3.161 13.579744,13.579744 0 0 0 -9.48716,8.83286 z" style="opacity:1;fill:#9acd32;fill-opacity:1;stroke:none"/>
      <path inkscape:connector-curvature="0" id="path3721" d="m 558.9773,469.02946 a 23.711162,24.982528 0 0 0 4.04493,23.44792 23.711162,24.982528 0 0 0 20.89129,9.17352 23.711162,24.982528 0 0 0 -4.04434,-23.44846 23.711162,24.982528 0 0 0 -20.89188,-9.17298 z" style="opacity:1;fill:#9acd32;fill-opacity:1;stroke:none"/>
      <path inkscape:connector-curvature="0" id="path3723" d="m 273.62569,291.20057 a 15.744092,15.744092 0 0 1 -5.85006,-13.83293 15.744092,15.744092 0 0 1 8.43626,-12.43687 15.744092,15.744092 0 0 1 5.85058,13.83297 15.744092,15.744092 0 0 1 -8.43678,12.43683 z" style="opacity:1;fill:#9acd32;fill-opacity:1;stroke:none"/>
      <path style="opacity:1;fill:#9acd32;fill-opacity:1;stroke:none" d="m 270.43144,247.23079 a 18.216187,18.216187 0 0 1 17.31139,1.51255 18.216187,18.216187 0 0 1 8.14503,15.36216 18.216187,18.216187 0 0 1 -17.31172,-1.51202 18.216187,18.216187 0 0 1 -8.1447,-15.36269 z" id="path3725" inkscape:connector-curvature="0"/>
      <path inkscape:connector-curvature="0" id="path3727" d="m 268.73978,226.33627 a 16.737288,16.112793 43.650589 0 1 15.64909,1.65901 16.737288,16.112793 43.650589 0 1 7.61376,13.9787 16.737288,16.112793 43.650589 0 1 -15.64937,-1.65854 16.737288,16.112793 43.650589 0 1 -7.61348,-13.97917 z" style="opacity:1;fill:#9acd32;fill-opacity:1;stroke:none"/>
      <path style="opacity:1;fill:#9acd32;fill-opacity:1;stroke:none" d="m 264.92451,207.25694 a 16.737288,16.112793 35.386469 0 1 15.72505,-0.60758 16.737288,16.112793 35.386469 0 1 9.54394,12.73917 16.737288,16.112793 35.386469 0 1 -15.72526,0.60808 16.737288,16.112793 35.386469 0 1 -9.54373,-12.73967 z" id="path3729" inkscape:connector-curvature="0"/>
      <path inkscape:connector-curvature="0" id="path3731" d="m 205.78515,236.90304 a 16.737288,16.112793 51.453351 0 1 15.27896,3.76823 16.737288,16.112793 51.453351 0 1 5.64547,14.88293 16.737288,16.112793 51.453351 0 1 -15.27931,-3.76779 16.737288,16.112793 51.453351 0 1 -5.64512,-14.88337 z" style="opacity:1;fill:#9acd32;fill-opacity:1;stroke:none"/>
      <path style="opacity:1;fill:#9acd32;fill-opacity:1;stroke:none" d="m 131.04416,262.39314 a 13.973373,14.514949 8.5380524 0 1 6.62904,11.92913 13.973373,14.514949 8.5380524 0 1 -6.11876,12.37401 13.973373,14.514949 8.5380524 0 1 -6.62952,-11.92909 13.973373,14.514949 8.5380524 0 1 6.11924,-12.37405 z" id="path3733" inkscape:connector-curvature="0"/>
      <path inkscape:connector-curvature="0" id="path3735" d="m 195.93671,275.66708 a 16.112793,16.737288 8.5380524 0 1 7.64399,13.75556 16.112793,16.737288 8.5380524 0 1 -7.05558,14.26856 16.112793,16.737288 8.5380524 0 1 -7.64455,-13.75552 16.112793,16.737288 8.5380524 0 1 7.05614,-14.2686 z" style="opacity:1;fill:#9acd32;fill-opacity:1;stroke:none"/>
      <path style="opacity:1;fill:#9acd32;fill-opacity:1;stroke:none" d="m 216.44142,382.09629 a 16.112793,16.737288 8.5380524 0 1 7.64399,13.75556 16.112793,16.737288 8.5380524 0 1 -7.05558,14.26856 16.112793,16.737288 8.5380524 0 1 -7.64455,-13.75552 16.112793,16.737288 8.5380524 0 1 7.05614,-14.2686 z" id="path3737" inkscape:connector-curvature="0"/>
      <path inkscape:connector-curvature="0" id="path3739" d="m 255.95851,300.83757 a 16.737288,16.112793 88.371105 0 1 9.95205,12.19027 16.737288,16.112793 88.371105 0 1 -4.42615,15.28994 16.737288,16.112793 88.371105 0 1 -9.95259,-12.19014 16.737288,16.112793 88.371105 0 1 4.42669,-15.29007 z" style="opacity:1;fill:#9acd32;fill-opacity:1;stroke:none"/>
      <path inkscape:connector-curvature="0" id="path3741" d="m 211.24863,485.13267 a 21.703955,21.770372 33.234486 0 0 19.7666,6.177 21.703955,21.770372 33.234486 0 0 15.97883,-13.27684 21.703955,21.770372 33.234486 0 0 -19.76668,-6.17777 21.703955,21.770372 33.234486 0 0 -15.97875,13.27761 z" style="opacity:1;fill:#9acd32;fill-opacity:1;stroke:none"/>
      <path style="opacity:1;fill:#9acd32;fill-opacity:1;stroke:none" d="m 222.61931,442.99245 a 13.579744,13.579744 0 0 0 12.53121,3.28421 13.579744,13.579744 0 0 0 9.57383,-8.73853 13.579744,13.579744 0 0 0 -12.53128,-3.28462 13.579744,13.579744 0 0 0 -9.57374,8.73896 z" id="path3743" inkscape:connector-curvature="0"/>
      <path style="opacity:1;fill:#9acd32;fill-opacity:1;stroke:none" d="m 220.2979,463.47243 a 16.37177,17.294978 33.234486 0 0 15.03493,4.46935 16.37177,17.294978 33.234486 0 0 12.48978,-10.6813 16.37177,17.294978 33.234486 0 0 -15.03499,-4.46997 16.37177,17.294978 33.234486 0 0 -12.48972,10.68192 z" id="path3745" inkscape:connector-curvature="0"/>
      <path inkscape:connector-curvature="0" id="path3747" d="m 222.48591,429.10178 a 13.579744,13.579744 0 0 0 12.93886,-0.63502 13.579744,13.579744 0 0 0 6.50384,-11.2125 13.579744,13.579744 0 0 0 -12.93905,0.63465 13.579744,13.579744 0 0 0 -6.50362,11.21289 z" style="opacity:1;fill:#9acd32;fill-opacity:1;stroke:none"/>
      <path inkscape:connector-curvature="0" id="path3749" d="m 410.3489,529.97181 a 13.579744,13.579744 0 0 1 -12.89575,-1.23164 13.579744,13.579744 0 0 1 -5.97931,-11.50077 13.579744,13.579744 0 0 1 12.89597,1.23127 13.579744,13.579744 0 0 1 5.97907,11.50114 z" style="opacity:1;fill:#9acd32;fill-opacity:1;stroke:none"/>
      <path inkscape:connector-curvature="0" id="path3751" d="m 404.63181,548.73581 a 17.427747,16.497452 81.149204 0 1 -15.65827,-2.1528 17.427747,16.497452 81.149204 0 1 -7.01946,-14.99917 17.427747,16.497452 81.149204 0 1 15.65859,2.15227 17.427747,16.497452 81.149204 0 1 7.01914,14.9997 z" style="opacity:1;fill:#9acd32;fill-opacity:1;stroke:none"/>
      <path style="opacity:1;fill:#9acd32;fill-opacity:1;stroke:none" d="m 415.2276,519.87045 a 13.579744,13.579744 0 0 1 -10.98491,-6.86652 13.579744,13.579744 0 0 1 -0.2074,-12.9606 13.579744,13.579744 0 0 1 10.98526,6.86629 13.579744,13.579744 0 0 1 0.20704,12.96082 z" id="path3753" inkscape:connector-curvature="0"/>
      <path style="opacity:1;fill:#9acd32;fill-opacity:1;stroke:none" d="m 406.96915,566.88096 a 21.17602,20.045641 65.139317 0 1 -19.00948,2.73307 21.17602,20.045641 65.139317 0 1 -13.22491,-15.16587 21.17602,20.045641 65.139317 0 1 19.00968,-2.73379 21.17602,20.045641 65.139317 0 1 13.22471,15.16659 z" id="path3755" inkscape:connector-curvature="0"/>
      <path inkscape:connector-curvature="0" id="path3757" d="m 421.33391,510.01556 a 13.579744,13.579744 0 0 1 -4.65951,-12.08745 13.579744,13.579744 0 0 1 7.61782,-10.48756 13.579744,13.579744 0 0 1 4.65993,12.08747 13.579744,13.579744 0 0 1 -7.61824,10.48752 z" style="opacity:1;fill:#9acd32;fill-opacity:1;stroke:none"/>
      <path style="opacity:1;fill:#9acd32;fill-opacity:1;stroke:none" d="m 381.93895,474.54349 a 19.532654,19.532654 0 0 0 -11.48606,-14.67199 19.532654,19.532654 0 0 0 -18.56976,1.66708 19.532654,19.532654 0 0 0 11.48575,14.67255 19.532654,19.532654 0 0 0 18.5701,-1.66766 z" id="path3759" inkscape:connector-curvature="0"/>
      <path style="opacity:1;fill:#9acd32;fill-opacity:1;stroke:none" d="m 498.98571,504.78181 a 21.692219,21.626041 38.390819 0 1 -16.75127,12.04968 21.692219,21.626041 38.390819 0 1 -19.27997,-7.53579 21.692219,21.626041 38.390819 0 1 16.75112,-12.05042 21.692219,21.626041 38.390819 0 1 19.28012,7.53653 z" id="path3761" inkscape:connector-curvature="0"/>
      <path inkscape:connector-curvature="0" id="path3763" d="m 143.09134,355.32525 a 20.911288,20.911288 0 0 0 19.94797,-0.12926 20.911288,20.911288 0 0 0 10.74074,-16.82417 20.911288,20.911288 0 0 0 -19.94828,0.12861 20.911288,20.911288 0 0 0 -10.74043,16.82482 z" style="opacity:1;fill:#9acd32;fill-opacity:1;stroke:none"/>
      <path style="opacity:1;fill:#9acd32;fill-opacity:1;stroke:none" d="m 138.92395,334.237 a 17.4716,17.4716 0 0 0 16.66673,-0.108 17.4716,17.4716 0 0 0 8.974,-14.05678 17.4716,17.4716 0 0 0 -16.66698,0.10746 17.4716,17.4716 0 0 0 -8.97375,14.05732 z" id="path3765" inkscape:connector-curvature="0"/>
      <path inkscape:connector-curvature="0" id="path3767" d="m 135.57655,316.48533 a 16.24106,16.24106 0 0 0 15.49288,-0.10034 16.24106,16.24106 0 0 0 8.34196,-13.06676 16.24106,16.24106 0 0 0 -15.49312,0.0999 16.24106,16.24106 0 0 0 -8.34172,13.06724 z" style="opacity:1;fill:#9acd32;fill-opacity:1;stroke:none"/>
      <path style="opacity:1;fill:#9acd32;fill-opacity:1;stroke:none" d="m 134.81875,300.48232 a 13.579744,13.579744 0 0 0 12.95416,-0.084 13.579744,13.579744 0 0 0 6.97502,-10.92558 13.579744,13.579744 0 0 0 -12.95436,0.0835 13.579744,13.579744 0 0 0 -6.97482,10.92601 z" id="path3769" inkscape:connector-curvature="0"/>
      <path style="opacity:1;fill:#9acd32;fill-opacity:1;stroke:none" d="m 191.53196,316.89184 a 13.579744,13.579744 0 0 1 -12.59323,-3.03774 13.579744,13.579744 0 0 1 -4.29788,-12.22897 13.579744,13.579744 0 0 1 12.59353,3.03738 13.579744,13.579744 0 0 1 4.29758,12.22933 z" id="path3771" inkscape:connector-curvature="0"/>
      <path inkscape:connector-curvature="0" id="path3773" d="m 213.17341,295.42315 a 13.579744,13.579744 0 0 1 -4.03444,-12.31017 13.579744,13.579744 0 0 1 8.1448,-10.08375 13.579744,13.579744 0 0 1 4.0349,12.31024 13.579744,13.579744 0 0 1 -8.14526,10.08368 z" style="opacity:1;fill:#9acd32;fill-opacity:1;stroke:none"/>
      <path inkscape:connector-curvature="0" id="path3775" d="m 185.96701,333.82052 a 15.887577,15.887577 0 0 1 -14.73341,-3.554 15.887577,15.887577 0 0 1 -5.02829,-14.30724 15.887577,15.887577 0 0 1 14.73376,3.55357 15.887577,15.887577 0 0 1 5.02794,14.30767 z" style="opacity:1;fill:#9acd32;fill-opacity:1;stroke:none"/>
      <path inkscape:connector-curvature="0" id="path3777" d="m 231.98091,362.4028 a 18.249972,18.249972 0 0 0 17.08534,-3.34448 18.249972,18.249972 0 0 0 6.48343,-16.16862 18.249972,18.249972 0 0 0 -17.08572,3.34398 18.249972,18.249972 0 0 0 -6.48305,16.16912 z" style="opacity:1;fill:#9acd32;fill-opacity:1;stroke:none"/>
      <path style="opacity:1;fill:#9acd32;fill-opacity:1;stroke:none" d="m 224.53134,346.24295 a 17.4716,17.4716 0 0 0 16.35664,-3.20184 17.4716,17.4716 0 0 0 6.2069,-15.47902 17.4716,17.4716 0 0 0 -16.35699,3.20136 17.4716,17.4716 0 0 0 -6.20655,15.4795 z" id="path3779" inkscape:connector-curvature="0"/>
      <path inkscape:connector-curvature="0" id="path3781" d="m 218.92747,328.30294 a 16.103053,16.103053 0 0 0 15.07543,-2.95104 16.103053,16.103053 0 0 0 5.72072,-14.26655 16.103053,16.103053 0 0 0 -15.07576,2.95059 16.103053,16.103053 0 0 0 -5.72039,14.267 z" style="opacity:1;fill:#9acd32;fill-opacity:1;stroke:none"/>
      <path style="opacity:1;fill:#9acd32;fill-opacity:1;stroke:none" d="m 215.58403,310.56808 a 13.579744,13.579744 0 0 0 12.71314,-2.48863 13.579744,13.579744 0 0 0 4.8243,-12.03102 13.579744,13.579744 0 0 0 -12.71342,2.48825 13.579744,13.579744 0 0 0 -4.82402,12.0314 z" id="path3783" inkscape:connector-curvature="0"/>
      <path style="opacity:1;fill:#9acd32;fill-opacity:1;stroke:none" d="m 272.66733,382.58688 a 17.523715,17.57734 20.140665 0 0 16.67441,1.24207 17.523715,17.57734 20.140665 0 0 10.13734,-13.36372 17.523715,17.57734 20.140665 0 0 -16.67462,-1.24265 17.523715,17.57734 20.140665 0 0 -10.13713,13.3643 z" id="path3785" inkscape:connector-curvature="0"/>
      <path inkscape:connector-curvature="0" id="path3787" d="m 268.7765,349.2307 a 13.579744,13.579744 0 0 0 12.94943,0.35992 13.579744,13.579744 0 0 0 7.34523,-10.68025 13.579744,13.579744 0 0 0 -12.94959,-0.3603 13.579744,13.579744 0 0 0 -7.34505,10.68064 z" style="opacity:1;fill:#9acd32;fill-opacity:1;stroke:none"/>
      <path inkscape:connector-curvature="0" id="path3789" d="m 271.36154,364.8813 a 14.368538,15.178783 20.140665 0 0 13.74082,0.83117 14.368538,15.178783 20.140665 0 0 8.55283,-11.61392 14.368538,15.178783 20.140665 0 0 -13.741,-0.83168 14.368538,15.178783 20.140665 0 0 -8.55265,11.61443 z" style="opacity:1;fill:#9acd32;fill-opacity:1;stroke:none"/>
      <path style="opacity:1;fill:#9acd32;fill-opacity:1;stroke:none" d="m 265.9879,336.70782 a 13.579744,13.579744 0 0 0 12.45859,-3.54976 13.579744,13.579744 0 0 0 3.79459,-12.3944 13.579744,13.579744 0 0 0 -12.45886,3.54944 13.579744,13.579744 0 0 0 -3.79429,12.39473 z" id="path3791" inkscape:connector-curvature="0"/>
      <path style="opacity:1;fill:#9acd32;fill-opacity:1;stroke:none" d="m 133.32845,362.33131 a 20.911288,20.911288 0 0 1 -19.24477,5.25138 20.911288,20.911288 0 0 1 -14.877362,-13.30714 20.911288,20.911288 0 0 1 19.244882,-5.25209 20.911288,20.911288 0 0 1 14.87725,13.30785 z" id="path3793" inkscape:connector-curvature="0"/>
      <path inkscape:connector-curvature="0" id="path3795" d="m 130.19387,339.43557 a 17.4716,17.4716 0 0 1 -16.0792,4.38759 17.4716,17.4716 0 0 1 -12.43019,-11.11827 17.4716,17.4716 0 0 1 16.07929,-4.38817 17.4716,17.4716 0 0 1 12.4301,11.11885 z" style="opacity:1;fill:#9acd32;fill-opacity:1;stroke:none"/>
      <path style="opacity:1;fill:#9acd32;fill-opacity:1;stroke:none" d="m 129.60988,316.5565 a 16.24106,16.24106 0 0 1 -14.94672,4.07861 16.24106,16.24106 0 0 1 -11.55474,-10.33521 16.24106,16.24106 0 0 1 14.94683,-4.0791 16.24106,16.24106 0 0 1 11.55464,10.33573 z" id="path3797" inkscape:connector-curvature="0"/>
      <path inkscape:connector-curvature="0" id="path3799" d="m 130.42078,299.47672 a 13.579744,13.579744 0 0 1 -12.49752,3.41018 13.579744,13.579744 0 0 1 -9.66133,-8.64163 13.579744,13.579744 0 0 1 12.49757,-3.41071 13.579744,13.579744 0 0 1 9.66126,8.64209 z" style="opacity:1;fill:#9acd32;fill-opacity:1;stroke:none"/>
      <path style="opacity:1;fill:#9acd32;fill-opacity:1;stroke:none" d="m 136.18106,428.90805 a 19.94622,19.94622 0 0 0 8.32822,-17.10831 19.94622,19.94622 0 0 0 -9.8394,-16.29965 19.94622,19.94622 0 0 0 -8.32887,17.10834 19.94622,19.94622 0 0 0 9.84005,16.29962 z" id="path3801" inkscape:connector-curvature="0"/>
      <path style="opacity:1;fill:#9acd32;fill-opacity:1;stroke:none" d="m 211.97567,536.03341 a 40.658521,40.452191 0 0 1 12.55557,36.51156 40.658521,40.452191 0 0 1 -23.99306,30.34976 40.658521,40.452191 0 0 1 -12.55692,-36.51179 40.658521,40.452191 0 0 1 23.99441,-30.34953 z" id="path3803" inkscape:connector-curvature="0"/>
      <path style="opacity:1;fill:#9acd32;fill-opacity:1;stroke:none" d="m 209.85086,456.12107 a 17.57734,17.523715 72.204341 0 1 -16.71127,0.55877 17.57734,17.523715 72.204341 0 1 -9.58205,-13.76731 17.57734,17.523715 72.204341 0 1 16.71151,-0.55934 17.57734,17.523715 72.204341 0 1 9.58181,13.76788 z" id="path3805" inkscape:connector-curvature="0"/>
      <path inkscape:connector-curvature="0" id="path3807" d="m 216.14205,437.81333 a 15.583149,15.583149 0 0 1 -14.8643,-0.19535 15.583149,15.583149 0 0 1 -7.92033,-12.59051 15.583149,15.583149 0 0 1 14.8645,0.19491 15.583149,15.583149 0 0 1 7.92011,12.59096 z" style="opacity:1;fill:#9acd32;fill-opacity:1;stroke:none"/>
      <path inkscape:connector-curvature="0" id="path3809" d="m 313.8298,195.42554 a 15.178783,14.368538 2.9041301 0 1 -4.61402,12.96965 15.178783,14.368538 2.9041301 0 1 -14.03512,3.32402 15.178783,14.368538 2.9041301 0 1 4.61361,-12.97001 15.178783,14.368538 2.9041301 0 1 14.03553,-3.32366 z" style="opacity:1;fill:#9acd32;fill-opacity:1;stroke:none"/>
      <path style="opacity:1;fill:#9acd32;fill-opacity:1;stroke:none" d="m 214.59819,423.14929 a 13.579744,13.579744 0 0 1 -12.30292,-4.05655 13.579744,13.579744 0 0 1 -3.28428,-12.53928 13.579744,13.579744 0 0 1 12.3032,4.05624 13.579744,13.579744 0 0 1 3.28396,12.5396 z" id="path3811" inkscape:connector-curvature="0"/>
      <path style="opacity:1;fill:#9acd32;fill-opacity:1;stroke:none" d="m 186.61705,370.70441 a 21.173984,21.173984 0 0 1 18.6169,-7.83635 21.173984,21.173984 0 0 1 16.70704,11.37391 21.173984,21.173984 0 0 1 -18.61695,7.83706 21.173984,21.173984 0 0 1 -16.70699,-11.37462 z" id="path3813" inkscape:connector-curvature="0"/>
      <path inkscape:connector-curvature="0" id="path3815" d="m 188.1415,346.17814 a 18.216187,18.216187 0 0 1 17.32771,-1.31234 18.216187,18.216187 0 0 1 10.52649,13.83946 18.216187,18.216187 0 0 1 -17.32796,1.31292 18.216187,18.216187 0 0 1 -10.52624,-13.84004 z" style="opacity:1;fill:#9acd32;fill-opacity:1;stroke:none"/>
      <path style="opacity:1;fill:#9acd32;fill-opacity:1;stroke:none" d="m 194.79569,323.27071 a 14.172666,13.643861 58.196735 0 1 12.47363,4.68795 14.172666,13.643861 58.196735 0 1 3.26754,13.07659 14.172666,13.643861 58.196735 0 1 -12.47396,-4.68761 14.172666,13.643861 58.196735 0 1 -3.26721,-13.07693 z" id="path3817" inkscape:connector-curvature="0"/>
      <path inkscape:connector-curvature="0" id="path3821" d="m 195.55238,320.10856 a 11.334989,11.334989 0 0 0 10.61164,-2.07725 11.334989,11.334989 0 0 0 4.02683,-10.04227 11.334989,11.334989 0 0 0 -10.61187,2.07694 11.334989,11.334989 0 0 0 -4.0266,10.04258 z" style="opacity:1;fill:#9acd32;fill-opacity:1;stroke:none"/>
      <path inkscape:connector-curvature="0" id="path3823" d="m 184.29677,402.81799 a 19.248527,19.248527 0 0 0 -12.41836,13.52602 19.248527,19.248527 0 0 0 4.60612,17.78652 19.248527,19.248527 0 0 0 12.41899,-13.52585 19.248527,19.248527 0 0 0 -4.60675,-17.78669 z" style="opacity:1;fill:#9acd32;fill-opacity:1;stroke:none"/>
      <path style="opacity:1;fill:#9acd32;fill-opacity:1;stroke:none" d="m 167.83922,377.65405 a 11.604826,11.604826 0 0 0 10.79964,2.43355 11.604826,11.604826 0 0 0 7.91766,-7.74683 11.604826,11.604826 0 0 0 -10.79975,-2.43395 11.604826,11.604826 0 0 0 -7.91755,7.74723 z" id="path3825" inkscape:connector-curvature="0"/>
      <path inkscape:connector-curvature="0" id="path3827" d="m 155.48764,390.00865 a 18.712692,18.712692 0 0 0 15.24558,9.28605 18.712692,18.712692 0 0 0 16.09095,-7.75397 18.712692,18.712692 0 0 0 -15.24552,-9.28667 18.712692,18.712692 0 0 0 -16.09101,7.75459 z" style="opacity:1;fill:#9acd32;fill-opacity:1;stroke:none"/>
      <path inkscape:connector-curvature="0" id="path3829" d="m 150.13098,444.45727 a 25.77995,25.77995 0 0 1 3.49317,24.34344 25.77995,25.77995 0 0 1 -18.54574,16.17387 25.77995,25.77995 0 0 1 -3.49399,-24.34374 25.77995,25.77995 0 0 1 18.54656,-16.17357 z" style="opacity:1;fill:#9acd32;fill-opacity:1;stroke:none"/>
      <path inkscape:connector-curvature="0" id="path3831" d="m 254.48527,391.22115 a 18.433286,18.433286 0 0 1 -11.71474,-13.11405 18.433286,18.433286 0 0 1 4.64282,-16.97149 18.433286,18.433286 0 0 1 11.71534,13.11389 18.433286,18.433286 0 0 1 -4.64342,16.97165 z" style="opacity:1;fill:#9acd32;fill-opacity:1;stroke:none"/>
      <path inkscape:connector-curvature="0" id="path4013" d="m 491.82629,558.12957 a 37.498456,37.498456 0 0 0 -19.16983,30.20148 37.498456,37.498456 0 0 0 14.93953,32.52651 37.498456,37.498456 0 0 0 19.17109,-30.2014 37.498456,37.498456 0 0 0 -14.94079,-32.52659 z" style="opacity:1;fill:#9acd32;fill-opacity:1;stroke:none"/>
      <path style="opacity:1;fill:#9acd32;fill-opacity:1;stroke:none" d="m 640.02664,539.25914 a 18.028155,18.028155 0 0 1 -8.28989,-15.06811 18.028155,18.028155 0 0 1 8.1467,-15.15783 18.028155,18.028155 0 0 1 8.2905,15.06811 18.028155,18.028155 0 0 1 -8.14731,15.15783 z" id="path4015" inkscape:connector-curvature="0"/>
      <path inkscape:connector-curvature="0" id="path4017" d="m 322.01856,312.63555 a 24.588319,20.025822 0 0 1 2.90186,18.95688 24.588319,20.025822 0 0 1 -17.9707,12.29533 24.588319,20.025822 0 0 1 -2.90262,-18.95712 24.588319,20.025822 0 0 1 17.97146,-12.29509 z" style="opacity:1;fill:#9acd32;fill-opacity:1;stroke:none"/>
      <path style="opacity:1;fill:#9acd32;fill-opacity:1;stroke:none" d="m 304.15474,311.04792 a 15.691041,15.691041 0 0 1 -3.81566,14.47397 15.691041,15.691041 0 0 1 -14.23172,4.66747 15.691041,15.691041 0 0 1 3.81528,-14.47434 15.691041,15.691041 0 0 1 14.2321,-4.6671 z" id="path4019" inkscape:connector-curvature="0"/>
      <path inkscape:connector-curvature="0" id="path4021" d="m 257.46555,286.36959 a 13.497845,13.497845 0 0 1 -3.28233,12.45089 13.497845,13.497845 0 0 1 -12.24249,4.01508 13.497845,13.497845 0 0 1 3.282,-12.4512 13.497845,13.497845 0 0 1 12.24282,-4.01477 z" style="opacity:1;fill:#9acd32;fill-opacity:1;stroke:none"/>
      <path style="opacity:1;fill:#9acd32;fill-opacity:1;stroke:none" d="m 245.60637,276.42641 a 13.926398,13.926398 0 0 1 -6.80687,11.40877 13.926398,13.926398 0 0 1 -13.28418,0.48809 13.926398,13.926398 0 0 1 6.80664,-11.4092 13.926398,13.926398 0 0 1 13.28441,-0.48766 z" id="path4023" inkscape:connector-curvature="0"/>
      <path inkscape:connector-curvature="0" id="path4025" d="m 235.45079,266.62666 a 12.181926,12.181926 0 0 1 -10.35611,5.27232 12.181926,12.181926 0 0 1 -10.06066,-5.83037 12.181926,12.181926 0 0 1 10.35613,-5.27275 12.181926,12.181926 0 0 1 10.06064,5.8308 z" style="opacity:1;fill:#9acd32;fill-opacity:1;stroke:none"/>
      <path style="opacity:1;fill:#9acd32;fill-opacity:1;stroke:none" d="m 254.98114,278.67533 a 17.4716,17.4716 0 0 0 13.98071,-9.07367 17.4716,17.4716 0 0 0 -0.017,-16.6771 17.4716,17.4716 0 0 0 -13.9812,9.07335 17.4716,17.4716 0 0 0 0.0174,16.67742 z" id="path4027" inkscape:connector-curvature="0"/>
      <path inkscape:connector-curvature="0" id="path4029" d="m 242.65391,267.53265 a 13.579744,13.579744 0 0 0 10.86645,-7.05248 13.579744,13.579744 0 0 0 -0.0132,-12.96222 13.579744,13.579744 0 0 0 -10.86685,7.05223 13.579744,13.579744 0 0 0 0.0136,12.96247 z" style="opacity:1;fill:#9acd32;fill-opacity:1;stroke:none"/>
      <path style="opacity:1;fill:#9acd32;fill-opacity:1;stroke:none" d="m 232.05081,256.63975 a 13.579744,13.579744 0 0 0 10.86645,-7.05248 13.579744,13.579744 0 0 0 -0.0132,-12.96222 13.579744,13.579744 0 0 0 -10.86685,7.05223 13.579744,13.579744 0 0 0 0.0136,12.96247 z" id="path4031" inkscape:connector-curvature="0"/>
      <path style="opacity:1;fill:#9acd32;fill-opacity:1;stroke:none" d="m 416.36681,238.83181 a 13.837616,13.837616 0 0 0 8.00137,10.499 13.837616,13.837616 0 0 0 13.16972,-1.00996 13.837616,13.837616 0 0 0 -8.00116,-10.49943 13.837616,13.837616 0 0 0 -13.16993,1.01039 z" id="path4035" inkscape:connector-curvature="0"/>
      <path style="opacity:1;fill:#9acd32;fill-opacity:1;stroke:none" d="m 464.27379,296.13103 a 15.625957,14.866514 0 0 0 11.35252,-9.1908 15.625957,14.866514 0 0 0 -1.93907,-14.07006 15.625957,14.866514 0 0 0 -11.35301,9.19059 15.625957,14.866514 0 0 0 1.93956,14.07027 z" id="path4037" inkscape:connector-curvature="0"/>
      <path inkscape:connector-curvature="0" id="path4039" d="m 409.02762,197.83186 a 12.137077,12.137077 0 0 0 11.52893,-1.06699 12.137077,12.137077 0 0 0 5.37421,-10.26323 12.137077,12.137077 0 0 0 -11.52912,1.06663 12.137077,12.137077 0 0 0 -5.37402,10.26359 z" style="opacity:1;fill:#9acd32;fill-opacity:1;stroke:none"/>
      <path style="opacity:1;fill:#9acd32;fill-opacity:1;stroke:none" d="m 289.30771,309.4102 a 12.181926,12.181926 0 0 1 -10.35611,5.27232 12.181926,12.181926 0 0 1 -10.06066,-5.83037 12.181926,12.181926 0 0 1 10.35613,-5.27275 12.181926,12.181926 0 0 1 10.06064,5.8308 z" id="path4041" inkscape:connector-curvature="0"/>
      <path style="opacity:1;fill:#9acd32;fill-opacity:1;stroke:none" d="m 114.22429,372.48624 a 15.318125,15.318125 0 0 0 9.1416,11.40016 15.318125,15.318125 0 0 0 14.54673,-1.47752 15.318125,15.318125 0 0 0 -9.14138,-11.40063 15.318125,15.318125 0 0 0 -14.54695,1.47799 z" id="path4043" inkscape:connector-curvature="0"/>
      <path inkscape:connector-curvature="0" id="path4045" d="m 281.22491,285.1061 a 19.362096,19.362096 0 0 0 11.55498,14.40979 19.362096,19.362096 0 0 0 18.38705,-1.86758 19.362096,19.362096 0 0 0 -11.5547,-14.41039 19.362096,19.362096 0 0 0 -18.38733,1.86818 z" style="opacity:1;fill:#9acd32;fill-opacity:1;stroke:none"/>
    </g>
  </g>
</svg>