<svg width="11" height="10" viewBox="0 0 11 10" fill="none" xmlns="http://www.w3.org/2000/svg">
<path d="M3.4375 1.5625C3.81777 1.5625 4.125 1.25527 4.125 0.875C4.125 0.494727 3.81777 0.1875 3.4375 0.1875H2.0625C0.923828 0.1875 0 1.11133 0 2.25V7.75C0 8.88867 0.923828 9.8125 2.0625 9.8125H3.4375C3.81777 9.8125 4.125 9.50527 4.125 9.125C4.125 8.74473 3.81777 8.4375 3.4375 8.4375H2.0625C1.68223 8.4375 1.375 8.13027 1.375 7.75V2.25C1.375 1.86973 1.68223 1.5625 2.0625 1.5625H3.4375ZM10.8389 5.37383C10.942 5.27715 11 5.1418 11 5C11 4.8582 10.942 4.72285 10.8389 4.62617L7.74512 1.7043C7.59473 1.5625 7.37559 1.52383 7.18652 1.60547C6.99746 1.68711 6.875 1.87402 6.875 2.07812V3.625H4.125C3.74473 3.625 3.4375 3.93223 3.4375 4.3125V5.6875C3.4375 6.06777 3.74473 6.375 4.125 6.375H6.875V7.92188C6.875 8.12813 6.99746 8.31289 7.18652 8.39453C7.37559 8.47617 7.59473 8.4375 7.74512 8.2957L10.8389 5.37383Z" fill="#E01F27" fill-opacity="0.5"/>
</svg>
